<?xml version="1.0" standalone="no"?>
<!DOCTYPE svg PUBLIC "-//W3C//DTD SVG 1.1//EN" "http://www.w3.org/Graphics/SVG/1.1/DTD/svg11.dtd" >
<svg xmlns="http://www.w3.org/2000/svg">
<metadata>Generated by IcoMoon</metadata>
<defs>
<font id="talentsoft-font-icons" horiz-adv-x="1024">
<font-face units-per-em="1024" ascent="877.7142857142858" descent="-146.28571428571428" />
<missing-glyph horiz-adv-x="1024" />
<glyph unicode="&#x20;" horiz-adv-x="256" d="" />
<glyph unicode="&#xe900;" glyph-name="action-add" d="M889.6 419.2l-70.4 41.6c-12.8-28.8-28.8-54.4-51.2-76.8-41.6-38.4-96-60.8-153.6-60.8s-115.2 22.4-156.8 67.2c-41.6 41.6-64 96-60.8 156.8 0 48 16 92.8 48 131.2l-249.6 140.8c-28.8 16-64-3.2-64-35.2v-806.4c0-32 38.4-54.4 67.2-38.4l697.6 400c22.4 22.4 22.4 57.6-6.4 80zM496 659.2c32 28.8 73.6 48 115.2 48 48 0 89.6-19.2 118.4-48 32-32 48-73.6 48-118.4 0-19.2-3.2-35.2-9.6-51.2l51.2-28.8c9.6 25.6 16 51.2 16 80 0 57.6-19.2 115.2-60.8 156.8s-99.2 67.2-156.8 67.2c-57.6 0-112-22.4-153.6-60.8-6.4-6.4-12.8-16-19.2-22.4l44.8-25.6c0-3.2 3.2 0 6.4 3.2zM457.6 387.2c41.6-41.6 99.2-67.2 156.8-67.2s112 22.4 153.6 60.8c22.4 22.4 41.6 48 51.2 76.8l-51.2 32c-9.6-25.6-22.4-48-41.6-64-32-28.8-73.6-48-115.2-48-44.8 0-86.4 16-118.4 48s-48 73.6-48 118.4c0 41.6 16 76.8 41.6 108.8l-44.8 25.6c-28.8-38.4-44.8-86.4-44.8-134.4-3.2-57.6 19.2-115.2 60.8-156.8zM694.4 572.8h-48v54.4c0 6.4-6.4 16-16 16h-32c-9.6 0-16-6.4-16-16v-51.2h-57.6c-6.4 0-16-6.4-16-16v-32c0-9.6 6.4-16 16-16h57.6v-51.2c0-9.6 6.4-16 16-16h32c9.6 0 16 6.4 16 16v51.2h48c9.6 0 16 6.4 16 16v32c0 6.4-6.4 12.8-16 12.8z" />
<glyph unicode="&#xe901;" glyph-name="alerte" d="M512-57.6c-243.2 0-441.6 198.4-441.6 441.6s198.4 441.6 441.6 441.6 441.6-198.4 441.6-441.6-198.4-441.6-441.6-441.6zM512 761.6c-208 0-377.6-169.6-377.6-377.6s169.6-377.6 377.6-377.6c208 0 377.6 169.6 377.6 377.6s-169.6 377.6-377.6 377.6zM540.8 204.8h-60.8c-19.2 0-32-12.8-32-32v-60.8c0-19.2 12.8-32 32-32h60.8c19.2 0 32 12.8 32 32v60.8c0 16-12.8 32-32 32zM540.8 684.8h-60.8c-19.2 0-32-12.8-32-32v-358.4c0-19.2 12.8-32 32-32h60.8c19.2 0 32 12.8 32 32v358.4c0 16-12.8 32-32 32z" />
<glyph unicode="&#xe902;" glyph-name="alerte2" d="M512 825.6c-243.2 0-441.6-198.4-441.6-441.6s198.4-441.6 441.6-441.6 441.6 198.4 441.6 441.6-198.4 441.6-441.6 441.6zM448 112v60.8c0 19.2 12.8 32 32 32h64c19.2 0 32-16 32-32v-60.8c0-19.2-12.8-32-32-32h-64c-16 0-32 12.8-32 32zM544 265.6h-64c-19.2 0-32 12.8-32 32v358.4c0 19.2 12.8 32 32 32h60.8c19.2 0 32-16 32-32v-358.4c3.2-19.2-12.8-32-28.8-32z" />
<glyph unicode="&#xe903;" glyph-name="camera" d="M668.8 502.4v51.2c0 80-60.8 144-140.8 144h-316.8c-76.8 0-140.8-64-140.8-144v-352c0-80 60.8-144 140.8-144h316.8c76.8 0 140.8 64 140.8 144v300.8zM937.6 579.2c-3.2 3.2-12.8 3.2-16 3.2-6.4-3.2-12.8-3.2-22.4-6.4l-192-60.8v-275.2l192-60.8c9.6-6.4 16-6.4 25.6-6.4 3.2 0 9.6 3.2 12.8 3.2 9.6 6.4 16 12.8 16 25.6v352c0 12.8 0 22.4-16 25.6z" />
<glyph unicode="&#xe904;" glyph-name="file-broken" d="M124.8 393.6l105.6 83.2 166.4-192 179.2 128 326.4-118.4v-51.2l-326.4 115.2-182.4-140.8-166.4 195.2-102.4-73.6zM864 624c-19.2 25.6-44.8 57.6-76.8 86.4s-57.6 57.6-86.4 76.8c-44.8 32-67.2 35.2-80 35.2h-428.8c-38.4 0-70.4-32-70.4-70.4v-275.2h54.4v278.4c3.2 6.4 9.6 12.8 16 12.8h428.8v-195.2c0-16 12.8-28.8 28.8-28.8h195.2v-176h3.2v-12.8h51.2v188.8c0 16-3.2 35.2-35.2 80zM678.4 601.6v134.4c19.2-16 44.8-35.2 70.4-64 25.6-25.6 48-51.2 64-70.4h-134.4zM899.2 380.8l-320 118.4-172.8-115.2-166.4 192-118.4-86.4v-57.6l115.2 83.2 166.4-192 176 128 320-121.6zM169.6 473.6v0 0zM844.8 6.4c0-6.4-6.4-12.8-12.8-12.8h-640c-6.4 0-12.8 6.4-12.8 12.8v387.2h-54.4v-387.2c0-38.4 28.8-70.4 67.2-70.4h640c38.4 0 70.4 32 70.4 70.4v272h-54.4v-272h-3.2z" />
<glyph unicode="&#xe905;" glyph-name="file-csv" d="M864 624c-19.2 25.6-44.8 57.6-76.8 86.4s-57.6 57.6-86.4 76.8c-44.8 32-67.2 35.2-80 35.2h-428.8c-38.4 0-70.4-32-70.4-70.4v-748.8c3.2-35.2 32-67.2 70.4-67.2h640c38.4 0 70.4 32 70.4 70.4v540.8c-3.2 12.8-6.4 32-38.4 76.8zM748.8 672c25.6-25.6 48-51.2 64-70.4h-134.4v134.4c19.2-16 44.8-38.4 70.4-64zM844.8 6.4c0-6.4-6.4-12.8-12.8-12.8h-640c-6.4 0-12.8 6.4-12.8 12.8v748.8c0 6.4 6.4 12.8 12.8 12.8h428.8v-195.2c0-16 12.8-28.8 28.8-28.8h195.2v-537.6zM400 246.4c0-6.4-3.2-16-6.4-22.4-3.2-9.6-9.6-16-16-25.6s-16-16-28.8-19.2c-12.8-6.4-25.6-6.4-38.4-6.4s-22.4 0-32 3.2c-9.6 3.2-19.2 6.4-25.6 9.6-6.4 6.4-16 12.8-22.4 19.2s-9.6 16-16 25.6c-3.2 9.6-6.4 19.2-9.6 28.8s-3.2 22.4-3.2 32c0 19.2 3.2 35.2 6.4 48 6.4 16 12.8 25.6 22.4 38.4s19.2 19.2 32 22.4 25.6 9.6 41.6 9.6c16 0 32-3.2 48-9.6 12.8-6.4 25.6-16 32-28.8s9.6-22.4 9.6-32c0-6.4-3.2-9.6-6.4-12.8s-6.4-6.4-12.8-6.4c-6.4 0-9.6 0-12.8 3.2s-6.4 6.4-9.6 16-12.8 19.2-19.2 25.6-16 9.6-28.8 9.6c-19.2 0-32-6.4-41.6-22.4-6.4-16-12.8-38.4-12.8-64 0-19.2 3.2-32 6.4-44.8s12.8-19.2 19.2-25.6c9.6-6.4 19.2-9.6 28.8-9.6 12.8 0 22.4 3.2 32 9.6s16 16 19.2 28.8c3.2 6.4 3.2 9.6 6.4 16 3.2 3.2 6.4 6.4 12.8 6.4s9.6-3.2 12.8-6.4c9.6-3.2 12.8-9.6 12.8-16zM601.6 243.2c0-12.8-3.2-25.6-9.6-38.4-6.4-9.6-16-19.2-28.8-25.6s-28.8-9.6-44.8-9.6c-22.4 0-38.4 3.2-51.2 12.8-9.6 6.4-19.2 12.8-22.4 25.6-6.4 9.6-9.6 19.2-9.6 28.8 0 6.4 3.2 9.6 6.4 16 3.2 3.2 9.6 6.4 12.8 6.4s9.6 0 12.8-3.2c3.2-3.2 6.4-6.4 9.6-12.8s6.4-12.8 9.6-19.2c3.2-6.4 6.4-9.6 12.8-12.8s12.8-3.2 22.4-3.2c12.8 0 22.4 3.2 32 9.6s12.8 16 12.8 25.6c0 6.4-3.2 12.8-6.4 19.2-3.2 3.2-9.6 9.6-16 9.6s-16 6.4-28.8 6.4c-16 3.2-28.8 9.6-38.4 12.8-9.6 6.4-19.2 12.8-25.6 22.4s-9.6 19.2-9.6 32c0 12.8 3.2 22.4 9.6 32s16 16 28.8 22.4c12.8 6.4 25.6 6.4 44.8 6.4 12.8 0 25.6-3.2 35.2-6.4s19.2-9.6 25.6-12.8 9.6-12.8 12.8-19.2 3.2-12.8 3.2-19.2c0-6.4-3.2-9.6-6.4-16-3.2-3.2-9.6-6.4-12.8-6.4-6.4 0-9.6 0-12.8 3.2s-6.4 6.4-9.6 12.8c-3.2 9.6-9.6 16-12.8 19.2-6.4 6.4-12.8 6.4-25.6 6.4s-19.2-3.2-28.8-6.4c-6.4-6.4-9.6-12.8-9.6-19.2 0-3.2 0-9.6 3.2-12.8s6.4-6.4 9.6-9.6c3.2-3.2 9.6-3.2 12.8-6.4 3.2 0 12.8-3.2 22.4-6.4 12.8-3.2 22.4-6.4 32-9.6s19.2-9.6 25.6-12.8 12.8-12.8 16-19.2c-3.2 0-3.2-9.6-3.2-22.4zM672 377.6l48-153.6 48 153.6c3.2 9.6 3.2 12.8 6.4 16s3.2 6.4 6.4 9.6c3.2 3.2 6.4 3.2 12.8 3.2 3.2 0 6.4 0 9.6-3.2s6.4-3.2 6.4-6.4 3.2-6.4 3.2-9.6c0-3.2 0-3.2 0-6.4s0-6.4-3.2-6.4c0-3.2-3.2-6.4-3.2-6.4l-51.2-150.4c-3.2-6.4-3.2-9.6-6.4-16s-3.2-9.6-6.4-12.8c-3.2-3.2-6.4-6.4-9.6-9.6s-9.6-3.2-16-3.2-9.6 0-16 3.2-6.4 6.4-9.6 9.6c-3.2 3.2-3.2 9.6-6.4 12.8s-3.2 9.6-6.4 16l-51.2 147.2c0 3.2-3.2 6.4-3.2 6.4s-3.2 6.4-3.2 9.6c0 3.2 0 6.4 0 6.4 0 6.4 3.2 9.6 6.4 16s9.6 6.4 16 6.4c6.4 0 12.8-3.2 16-6.4s9.6-16 12.8-25.6z" />
<glyph unicode="&#xe906;" glyph-name="file-empty" d="M864 624c-19.2 25.6-44.8 57.6-76.8 86.4s-57.6 57.6-86.4 76.8c-44.8 32-67.2 35.2-80 35.2h-428.8c-38.4 0-70.4-32-70.4-70.4v-748.8c3.2-35.2 32-67.2 70.4-67.2h640c38.4 0 70.4 32 70.4 70.4v540.8c-3.2 12.8-6.4 32-38.4 76.8zM748.8 672c25.6-25.6 48-51.2 64-70.4h-134.4v134.4c19.2-16 44.8-38.4 70.4-64zM844.8 6.4c0-6.4-6.4-12.8-12.8-12.8h-640c-6.4 0-12.8 6.4-12.8 12.8v748.8c0 6.4 6.4 12.8 12.8 12.8 0 0 428.8 0 428.8 0v-195.2c0-16 12.8-28.8 28.8-28.8h195.2v-537.6z" />
<glyph unicode="&#xe907;" glyph-name="file-excel" d="M864 624c-19.2 25.6-44.8 57.6-76.8 86.4s-57.6 57.6-86.4 76.8c-44.8 32-67.2 35.2-80 35.2h-428.8c-38.4 0-70.4-32-70.4-70.4v-748.8c3.2-35.2 32-67.2 70.4-67.2h640c38.4 0 70.4 32 70.4 70.4v540.8c-3.2 12.8-6.4 32-38.4 76.8zM748.8 672c25.6-25.6 48-51.2 64-70.4h-134.4v134.4c19.2-16 44.8-38.4 70.4-64zM844.8 6.4c0-6.4-6.4-12.8-12.8-12.8h-640c-6.4 0-12.8 6.4-12.8 12.8v748.8c0 6.4 6.4 12.8 12.8 12.8 0 0 428.8 0 428.8 0v-195.2c0-16 12.8-28.8 28.8-28.8h195.2v-537.6zM713.6 486.4h-118.4l-83.2-124.8-83.2 124.8h-118.4l140.8-211.2-160-236.8h220.8v80h-44.8l44.8 67.2 96-147.2h121.6l-160 236.8 144 211.2z" />
<glyph unicode="&#xe908;" glyph-name="file-pdf" d="M864 624c-19.2 25.6-44.8 57.6-76.8 86.4s-57.6 57.6-86.4 76.8c-44.8 32-67.2 35.2-80 35.2h-428.8c-38.4 0-70.4-32-70.4-70.4v-748.8c3.2-35.2 32-67.2 70.4-67.2h640c38.4 0 70.4 32 70.4 70.4v540.8c-3.2 12.8-6.4 32-38.4 76.8zM748.8 672c25.6-25.6 48-51.2 64-70.4h-134.4v134.4c19.2-16 44.8-38.4 70.4-64zM844.8 6.4c0-6.4-6.4-12.8-12.8-12.8h-640c-6.4 0-12.8 6.4-12.8 12.8v748.8c0 6.4 6.4 12.8 12.8 12.8h428.8v-195.2c0-16 12.8-28.8 28.8-28.8h195.2v-537.6zM323.2 265.6h-41.6v-64c0-9.6-3.2-16-6.4-22.4-3.2-3.2-9.6-6.4-16-6.4s-12.8 3.2-16 6.4c-3.2 3.2-6.4 12.8-6.4 22.4v176c0 9.6 3.2 16 6.4 22.4s12.8 6.4 22.4 6.4h54.4c16 0 28.8 0 38.4-3.2s16-6.4 22.4-12.8 12.8-12.8 16-22.4 6.4-19.2 6.4-28.8c0-22.4-6.4-41.6-19.2-54.4-16-16-35.2-19.2-60.8-19.2zM310.4 368h-28.8v-70.4h28.8c9.6 0 19.2 0 25.6 3.2s12.8 6.4 16 12.8 6.4 12.8 6.4 19.2c0 9.6-3.2 19.2-9.6 25.6s-19.2 9.6-38.4 9.6zM464 403.2h57.6c16 0 28.8 0 38.4-3.2s19.2-9.6 28.8-16c22.4-19.2 32-51.2 32-92.8 0-12.8 0-25.6-3.2-38.4s-6.4-22.4-9.6-32c-3.2-9.6-9.6-16-19.2-25.6-6.4-6.4-12.8-9.6-19.2-12.8s-12.8-6.4-22.4-6.4c-6.4 0-16-3.2-25.6-3.2h-57.6c-6.4 0-12.8 0-19.2 3.2-3.2 3.2-6.4 6.4-6.4 9.6s-3.2 9.6-3.2 19.2v166.4c0 9.6 3.2 16 6.4 22.4s12.8 9.6 22.4 9.6zM483.2 368v-156.8h32c6.4 0 12.8 0 16 0s9.6 0 12.8 3.2c3.2 3.2 9.6 3.2 12.8 6.4 16 12.8 22.4 35.2 22.4 67.2 0 22.4-3.2 38.4-9.6 51.2s-12.8 19.2-22.4 22.4c-9.6 3.2-19.2 3.2-35.2 3.2h-28.8zM787.2 368h-86.4v-57.6h70.4c6.4 0 12.8 0 16-3.2s6.4-6.4 6.4-12.8-3.2-9.6-6.4-12.8c-3.2-3.2-9.6-3.2-16-3.2h-70.4v-76.8c0-9.6-3.2-16-6.4-22.4-3.2-3.2-9.6-6.4-16-6.4s-12.8 3.2-16 6.4-6.4 12.8-6.4 22.4v176c0 6.4 0 12.8 3.2 16s3.2 6.4 9.6 9.6 9.6 3.2 16 3.2h102.4c6.4 0 12.8-3.2 16-6.4s6.4-6.4 6.4-12.8c0-6.4-3.2-9.6-6.4-12.8s-9.6-6.4-16-6.4z" />
<glyph unicode="&#xe909;" glyph-name="file-person" d="M572.8 179.2c-12.8 3.2-12.8 35.2-12.8 35.2s38.4 35.2 44.8 86.4c22.4 0 35.2 51.2 12.8 70.4 0 19.2 28.8 153.6-108.8 153.6s-108.8-131.2-108.8-153.6c-22.4-19.2-9.6-70.4 12.8-70.4 9.6-48 44.8-86.4 44.8-86.4s0-35.2-12.8-35.2c-41.6-6.4-192-73.6-192-147.2h515.2c0 73.6-153.6 140.8-195.2 147.2v0zM864 624c-19.2 25.6-44.8 57.6-76.8 86.4s-57.6 57.6-86.4 76.8c-44.8 32-67.2 35.2-80 35.2h-428.8c-38.4 0-70.4-32-70.4-70.4v-748.8c3.2-35.2 32-67.2 70.4-67.2h640c38.4 0 70.4 32 70.4 70.4v540.8c-3.2 12.8-6.4 32-38.4 76.8zM748.8 672c25.6-25.6 48-51.2 64-70.4h-134.4v134.4c19.2-16 44.8-38.4 70.4-64zM844.8 6.4c0-6.4-6.4-12.8-12.8-12.8h-640c-6.4 0-12.8 6.4-12.8 12.8v748.8c0 6.4 6.4 12.8 12.8 12.8 0 0 428.8 0 428.8 0v-195.2c0-16 12.8-28.8 28.8-28.8h195.2v-537.6z" />
<glyph unicode="&#xe90a;" glyph-name="file" d="M864 624c-19.2 25.6-44.8 57.6-76.8 86.4s-57.6 57.6-86.4 76.8c-44.8 32-67.2 35.2-80 35.2h-428.8c-38.4 0-70.4-32-70.4-70.4v-748.8c3.2-35.2 32-67.2 70.4-67.2h640c38.4 0 70.4 32 70.4 70.4v540.8c-3.2 12.8-6.4 32-38.4 76.8zM748.8 672c25.6-25.6 48-51.2 64-70.4h-134.4v134.4c19.2-16 44.8-38.4 70.4-64zM844.8 6.4c0-6.4-6.4-12.8-12.8-12.8h-640c-6.4 0-12.8 6.4-12.8 12.8v748.8c0 6.4 6.4 12.8 12.8 12.8 0 0 428.8 0 428.8 0v-195.2c0-16 12.8-28.8 28.8-28.8h195.2v-537.6zM707.2 102.4h-390.4c-16 0-28.8 12.8-28.8 28.8s12.8 28.8 28.8 28.8h387.2c16 0 28.8-12.8 28.8-28.8s-12.8-28.8-25.6-28.8zM707.2 214.4h-390.4c-16 0-28.8 12.8-28.8 28.8s12.8 28.8 28.8 28.8h387.2c16 0 28.8-12.8 28.8-28.8s-12.8-28.8-25.6-28.8zM707.2 323.2h-390.4c-16 0-28.8 12.8-28.8 28.8s12.8 28.8 28.8 28.8h387.2c16 0 28.8-12.8 28.8-28.8s-12.8-28.8-25.6-28.8z" />
<glyph unicode="&#xe90b;" glyph-name="files" d="M864 515.2c-19.2 25.6-44.8 57.6-76.8 86.4s-57.6 57.6-83.2 76.8c-44.8 32-67.2 35.2-80 35.2h-320c-38.4 0-70.4-32-70.4-70.4v-640c0-38.4 32-70.4 70.4-70.4h528c38.4 0 70.4 32 70.4 70.4v432c0 12.8-3.2 35.2-38.4 80zM748.8 563.2c25.6-25.6 48-51.2 64-70.4h-134.4v131.2c19.2-12.8 44.8-35.2 70.4-60.8v0zM844.8 3.2c0-6.4-6.4-12.8-12.8-12.8h-528c-6.4 0-12.8 6.4-12.8 12.8v640c0 6.4 6.4 12.8 12.8 12.8 0 0 320 0 320 0v-195.2c0-16 12.8-28.8 28.8-28.8h195.2v-428.8zM592 790.4c-44.8 32-67.2 35.2-80 35.2h-320c-38.4 0-70.4-32-70.4-70.4v-640c0-35.2 22.4-60.8 54.4-67.2v707.2c0 6.4 6.4 12.8 12.8 12.8h422.4c-3.2 9.6-12.8 16-19.2 22.4v0z" />
<glyph unicode="&#xe90c;" glyph-name="filter" d="M950.4 796.8c6.4-16 3.2-32-9.6-44.8l-310.4-310.4v-467.2c0-16-9.6-28.8-25.6-38.4-6.4-3.2-9.6-3.2-16-3.2-12.8 0-19.2 3.2-28.8 12.8l-160 160c-6.4 6.4-12.8 16-12.8 28.8v304l-307.2 313.6c-12.8 12.8-16 28.8-9.6 44.8s19.2 25.6 38.4 25.6h803.2c19.2 0 32-9.6 38.4-25.6v0z" />
<glyph unicode="&#xe90d;" glyph-name="folder-add" d="M921.6 633.6h-355.2l-112 112h-355.2c-19.2 0-32-12.8-32-32v-624c0-35.2 28.8-64 64-64h758.4c35.2 0 64 28.8 64 64v512c0 16-16 32-32 32zM720 288c0-6.4-6.4-16-16-16h-153.6v-150.4c0-9.6-6.4-16-16-16h-48c-9.6 0-16 6.4-16 16v150.4h-150.4c-9.6 0-16 6.4-16 16v48c0 9.6 6.4 16 16 16h153.6v150.4c0 9.6 6.4 16 16 16h48c9.6 0 16-6.4 16-16v-150.4h150.4c9.6 0 16-6.4 16-16v-48z" />
<glyph unicode="&#xe90e;" glyph-name="folder-download" d="M566.4 630.4l-112 112h-355.2c-19.2 0-32-12.8-32-32v-624c0-35.2 28.8-64 64-64h758.4c35.2 0 64 28.8 64 64v512c0 19.2-12.8 32-32 32h-355.2zM486.4 124.8l-115.2 115.2c-19.2 19.2-6.4 54.4 22.4 54.4h60.8v188.8c0 19.2 12.8 32 32 32h48c19.2 0 32-12.8 32-32v-188.8h60.8c28.8 0 41.6-35.2 22.4-54.4l-115.2-115.2c-16-12.8-35.2-12.8-48 0z" />
<glyph unicode="&#xe90f;" glyph-name="folder-minus" d="M566.4 630.4l-112 112h-355.2c-19.2 0-32-12.8-32-32v-624c0-35.2 28.8-64 64-64h758.4c35.2 0 64 28.8 64 64v512c0 19.2-12.8 32-32 32h-355.2zM643.2 240h-268.8c-19.2 0-32 12.8-32 32v48c0 19.2 12.8 32 32 32h268.8c19.2 0 32-12.8 32-32v-48c0-16-12.8-32-32-32z" />
<glyph unicode="&#xe910;" glyph-name="folder-open" d="M816 60.8l137.6 364.8c6.4 22.4-6.4 44.8-28.8 44.8h-681.6c-12.8 0-25.6-9.6-28.8-22.4l-144-384c-6.4-22.4 6.4-44.8 28.8-44.8h652.8c28.8 0 54.4 16 64 41.6zM172.8 499.2l-105.6-441.6v659.2c0 19.2 16 32 32 32h220.8l112-112h336c19.2 0 32-16 32-32v-80h-595.2c-12.8 0-28.8-9.6-32-25.6z" />
<glyph unicode="&#xe911;" glyph-name="folder-upload" d="M566.4 633.6l-112 112h-355.2c-19.2 0-32-12.8-32-32v-624c0-35.2 28.8-64 64-64h758.4c35.2 0 64 28.8 64 64v512c0 19.2-12.8 32-32 32h-355.2zM534.4 416l115.2-115.2c19.2-19.2 6.4-54.4-22.4-54.4h-60.8v-220.8h-112v220.8h-60.8c-28.8 0-41.6 35.2-22.4 54.4l115.2 115.2c12.8 12.8 35.2 12.8 48 0z" />
<glyph unicode="&#xe912;" glyph-name="folder" d="M454.4 745.6l112-112h355.2c19.2 0 32-12.8 32-32v-512c0-35.2-28.8-64-64-64h-758.4c-35.2 0-64 28.8-64 64v624c0 19.2 12.8 32 32 32h355.2z" />
<glyph unicode="&#xe913;" glyph-name="heart" d="M512 3.2c-9.6 0-16 3.2-22.4 9.6l-307.2 297.6c-3.2 3.2-6.4 6.4-12.8 12.8s-16 16-28.8 32-22.4 32-35.2 48-19.2 35.2-25.6 60.8c-6.4 22.4-12.8 44.8-12.8 67.2 0 73.6 22.4 128 64 169.6s99.2 60.8 172.8 60.8c19.2 0 41.6-3.2 64-9.6s41.6-16 60.8-28.8c19.2-12.8 35.2-22.4 48-35.2 6.4-3.2 12.8-9.6 16-12.8 12.8-9.6 28.8-9.6 41.6 0 6.4 6.4 9.6 9.6 16 12.8 12.8 9.6 28.8 22.4 48 35.2s38.4 22.4 60.8 28.8 41.6 9.6 64 9.6c73.6 0 131.2-19.2 172.8-60.8s64-99.2 64-169.6c0-73.6-38.4-147.2-112-224l-307.2-297.6c-16-3.2-22.4-6.4-28.8-6.4z" />
<glyph unicode="&#xe914;" glyph-name="heart2" d="M889.6 531.2c0 25.6-3.2 51.2-9.6 70.4-6.4 22.4-16 38.4-28.8 51.2s-25.6 22.4-41.6 28.8c-16 6.4-32 12.8-48 16s-32 3.2-48 3.2c-16 0-35.2-3.2-54.4-12.8s-38.4-19.2-54.4-32c-16-12.8-32-25.6-41.6-35.2-12.8-9.6-22.4-22.4-28.8-32-6.4-6.4-12.8-9.6-25.6-9.6-9.6 0-19.2 3.2-25.6 9.6-6.4 9.6-19.2 19.2-28.8 32-12.8 9.6-25.6 22.4-41.6 35.2s-35.2 22.4-54.4 32c-19.2 9.6-38.4 12.8-54.4 12.8s-32 0-48-3.2c-16-3.2-32-9.6-48-16s-28.8-19.2-38.4-28.8c-12.8-12.8-22.4-28.8-28.8-51.2-6.4-19.2-9.6-44.8-9.6-70.4 0-54.4 32-115.2 92.8-176l265.6-256c12.8-12.8 32-12.8 44.8 0l265.6 256c60.8 64 89.6 121.6 89.6 176zM953.6 531.2c0-73.6-38.4-147.2-112-224l-307.2-297.6c-6.4-6.4-12.8-9.6-22.4-9.6s-16 3.2-22.4 9.6l-307.2 297.6c-3.2 3.2-6.4 6.4-12.8 12.8s-16 16-28.8 32c-12.8 16-22.4 32-35.2 48-9.6 16-19.2 35.2-25.6 60.8-6.4 22.4-12.8 44.8-12.8 67.2 0 73.6 22.4 128 64 169.6s99.2 60.8 172.8 60.8c19.2 0 41.6-3.2 64-9.6s41.6-16 60.8-28.8c19.2-12.8 35.2-22.4 48-35.2 6.4-3.2 12.8-9.6 16-12.8 12.8-9.6 28.8-9.6 41.6 0 6.4 6.4 9.6 9.6 16 12.8 12.8 9.6 28.8 22.4 48 35.2s38.4 22.4 60.8 28.8c22.4 6.4 41.6 9.6 64 9.6 73.6 0 131.2-19.2 172.8-60.8 38.4-35.2 57.6-92.8 57.6-166.4z" />
<glyph unicode="&#xe915;" glyph-name="hide" d="M220.8 208l67.2 67.2c-38.4 22.4-73.6 51.2-102.4 86.4 44.8 54.4 102.4 96 166.4 121.6-9.6-22.4-16-44.8-16-70.4s6.4-51.2 16-73.6l54.4 54.4c-9.6 9.6-12.8 19.2-12.8 35.2 0 25.6 22.4 48 48 48 12.8 0 25.6-6.4 35.2-12.8l137.6 137.6c-35.2 3.2-70.4 6.4-102.4 6.4-166.4 0-326.4-80-422.4-217.6l-19.2-28.8 19.2-28.8c35.2-48 80-89.6 131.2-124.8v0zM777.6 534.4l-70.4-70.4c48-25.6 89.6-57.6 124.8-99.2-80-92.8-198.4-150.4-323.2-150.4-16 0-32 0-48 3.2l-80-80c41.6-9.6 86.4-16 128-16 166.4 0 326.4 80 422.4 217.6l19.2 28.8-19.2 28.8c-38.4 54.4-92.8 102.4-153.6 137.6v0zM512 240c96 0 172.8 76.8 172.8 172.8 0 9.6 0 16-3.2 25.6l-198.4-198.4c9.6 0 19.2 0 28.8 0zM454.4 249.6l432 435.2c22.4 22.4 22.4 54.4 0 76.8-9.6 9.6-25.6 16-38.4 16s-28.8-6.4-38.4-16l-672-678.4c-22.4-22.4-22.4-54.4 0-76.8 9.6-9.6 25.6-16 38.4-16s28.8 6.4 38.4 16c0 3.2 240 243.2 240 243.2z" />
<glyph unicode="&#xe916;" glyph-name="historic" d="M896 608c-38.4 67.2-96 121.6-163.2 160s-140.8 57.6-224 57.6c-80 0-156.8-19.2-224-57.6-64-38.4-121.6-92.8-160-160-19.2-35.2-35.2-73.6-44.8-112h137.6c6.4 16 12.8 32 22.4 48 25.6 48 64 83.2 112 112s99.2 41.6 160 41.6 108.8-16 160-41.6c48-25.6 83.2-64 112-112s41.6-99.2 41.6-160c0-54.4-16-108.8-41.6-160-25.6-48-64-83.2-112-112s-99.2-41.6-160-41.6-108.8 16-160 41.6c-19.2 9.6-38.4 25.6-54.4 38.4l-51.2-22.4-73.6-32c32-38.4 70.4-70.4 115.2-96 67.2-38.4 140.8-57.6 224-57.6 80 0 156.8 19.2 224 57.6s121.6 92.8 163.2 163.2 57.6 140.8 57.6 224-22.4 153.6-60.8 220.8zM521.6 310.4c25.6 0 25.6 3.2 32 6.4 3.2 3.2 12.8 19.2 16 22.4l105.6 185.6c3.2 6.4 3.2 9.6 0 12.8s-6.4 6.4-9.6 9.6l-32 19.2c-3.2 3.2-9.6 3.2-12.8 3.2-3.2-3.2-6.4-6.4-9.6-9.6l-99.2-176h-128c-6.4 0-9.6-3.2-12.8-6.4s-6.4-6.4-6.4-12.8v-35.2c0-6.4 3.2-9.6 6.4-12.8s6.4-6.4 12.8-6.4h137.6zM329.6 787.2c-51.2-22.4-92.8-48-131.2-86.4l-67.2 70.4c-9.6 12.8-25.6 16-41.6 9.6s-22.4-19.2-22.4-32v-243.2c0-9.6 3.2-19.2 9.6-22.4s16-9.6 22.4-9.6h243.2c16 0 25.6 6.4 32 22.4s3.2 25.6-9.6 35.2l-73.6 73.6z" />
<glyph unicode="&#xe917;" glyph-name="home" d="M825.6 329.6v-275.2c0-9.6-3.2-19.2-9.6-25.6s-16-9.6-25.6-9.6h-211.2v188.8c0 19.2-12.8 32-32 32h-76.8c-19.2 0-32-12.8-32-32v-188.8h-208c-9.6 0-19.2 3.2-25.6 9.6s-9.6 16-9.6 25.6v275.2c0 0 0 0 0 3.2 0 0 0 0 0 3.2l294.4 252.8c12.8 9.6 28.8 9.6 41.6 0l294.4-252.8c0-6.4 0-6.4 0-6.4v0zM950.4 368l-35.2-41.6c-3.2-3.2-6.4-6.4-12.8-6.4h-3.2c-3.2 0-9.6 0-12.8 3.2l-355.2 310.4c-12.8 9.6-28.8 9.6-41.6 0l-358.4-310.4c-6.4-3.2-9.6-3.2-12.8-3.2s-9.6 3.2-12.8 6.4l-35.2 41.6c-3.2 3.2-3.2 9.6-3.2 12.8 0 6.4 3.2 9.6 6.4 12.8l393.6 342.4c12.8 9.6 25.6 16 44.8 16 16 0 28.8-6.4 41.6-16l134.4-115.2v76.8c0 6.4 3.2 9.6 6.4 12.8s6.4 6.4 12.8 6.4h105.6c6.4 0 9.6-3.2 12.8-6.4s6.4-6.4 6.4-12.8v-201.6l121.6-102.4c3.2-3.2 6.4-6.4 6.4-12.8-6.4-6.4-6.4-9.6-9.6-12.8v0z" />
<glyph unicode="&#xe918;" glyph-name="info" d="M512-57.6c-243.2 0-441.6 198.4-441.6 441.6s198.4 441.6 441.6 441.6 441.6-198.4 441.6-441.6-198.4-441.6-441.6-441.6zM512 761.6c-208 0-377.6-169.6-377.6-377.6s169.6-377.6 377.6-377.6c208 0 377.6 169.6 377.6 377.6s-169.6 377.6-377.6 377.6zM534.4 665.6h-60.8c-19.2 0-32-12.8-32-32v-57.6c0-19.2 12.8-32 32-32h60.8c19.2 0 32 12.8 32 32v57.6c0 19.2-12.8 32-32 32zM544 486.4h-60.8c-19.2 0-32-12.8-32-32v-310.4c0-19.2 12.8-32 32-32h60.8c19.2 0 32 12.8 32 32v310.4c0 16-16 32-32 32zM582.4 233.6h-144c-19.2 0-32-12.8-32-32v-60.8c0-19.2 12.8-32 32-32h144c19.2 0 32 12.8 32 32v60.8c0 16-12.8 32-32 32zM515.2 486.4h-60.8c-19.2 0-32-12.8-32-32v-60.8c0-19.2 12.8-32 32-32h60.8c19.2 0 32 12.8 32 32v60.8c0 16-16 32-32 32z" />
<glyph unicode="&#xe919;" glyph-name="info2" d="M512 825.6c-243.2 0-441.6-198.4-441.6-441.6s198.4-441.6 441.6-441.6 441.6 198.4 441.6 441.6-198.4 441.6-441.6 441.6zM444.8 604.8c0 19.2 12.8 32 32 32h60.8c19.2 0 32-12.8 32-32v-57.6c0-19.2-12.8-32-32-32h-60.8c-19.2 0-32 12.8-32 32v57.6zM614.4 112c0-19.2-12.8-32-32-32h-144c-19.2 0-32 12.8-32 32v60.8c0 19.2 12.8 32 32 32h12.8v128c-16 0-28.8 12.8-28.8 32v60.8c0 19.2 12.8 32 32 32h89.6c16 0 32-16 32-32v-220.8h6.4c19.2 0 32-16 32-32v-60.8z" />
<glyph unicode="&#xe91a;" glyph-name="job" d="M889.6 636.8h-758.4c-35.2 0-64-28.8-64-64v-416c0-35.2 28.8-64 64-64h758.4c35.2 0 64 28.8 64 64v416c0 35.2-28.8 64-64 64zM889.6 188.8c0-19.2-12.8-32-32-32h-694.4c-19.2 0-32 12.8-32 32v249.6l329.6-48v-73.6c0-19.2 12.8-32 32-32h35.2c19.2 0 32 12.8 32 32v73.6l329.6 48v-249.6zM889.6 486.4l-377.6-60.8-380.8 57.6v57.6c0 12.8 6.4 22.4 19.2 28.8 6.4 3.2 16 3.2 28.8 3.2h659.2c12.8 0 25.6 0 35.2-3.2 9.6-6.4 16-16 16-28.8 0 0 0-54.4 0-54.4zM400 684.8c0 19.2 12.8 32 32 32h160c19.2 0 32-12.8 32-32v-48h44.8v83.2c0 19.2-12.8 32-32 32h-246.4c-19.2 0-32-12.8-32-32v-83.2h41.6v48z" />
<glyph unicode="&#xe91b;" glyph-name="like" d="M236.8 108.8c0 9.6-3.2 16-9.6 25.6s-16 9.6-25.6 9.6c-9.6 0-16-3.2-25.6-9.6-6.4-6.4-9.6-16-9.6-25.6s3.2-16 9.6-25.6c6.4-6.4 16-9.6 25.6-9.6s16 3.2 25.6 9.6c6.4 9.6 9.6 16 9.6 25.6zM854.4 419.2c0 19.2-6.4 35.2-22.4 48-12.8 12.8-28.8 19.2-48 19.2h-188.8c0 19.2 9.6 48 25.6 86.4s25.6 64 25.6 86.4c0 35.2-6.4 60.8-16 76.8-12.8 16-35.2 25.6-67.2 25.6-9.6-9.6-16-25.6-19.2-44.8-3.2-22.4-9.6-44.8-16-67.2s-16-44.8-32-57.6c-6.4-9.6-22.4-25.6-41.6-48 0-3.2-6.4-6.4-12.8-16s-12.8-16-16-22.4c-3.2-6.4-9.6-12.8-19.2-22.4-6.4-9.6-16-16-22.4-22.4s-12.8-12.8-19.2-19.2c-6.4-6.4-16-12.8-22.4-16s-12.8-6.4-19.2-6.4h-19.2v-342.4h16c3.2 0 9.6 0 16-3.2 6.4 0 12.8-3.2 19.2-3.2s12.8-3.2 19.2-6.4c9.6-3.2 16-3.2 19.2-6.4 3.2 0 9.6-3.2 19.2-6.4s12.8-6.4 16-6.4c76.8-25.6 137.6-38.4 182.4-38.4h64c67.2 0 102.4 28.8 102.4 89.6 0 9.6 0 19.2-3.2 28.8 9.6 6.4 19.2 16 25.6 28.8s9.6 25.6 9.6 38.4c0 12.8-3.2 25.6-9.6 38.4 19.2 19.2 28.8 38.4 28.8 64 0 9.6-3.2 19.2-6.4 28.8s-9.6 19.2-12.8 25.6c12.8 0 22.4 9.6 28.8 25.6 12.8 16 16 32 16 44.8v0zM921.6 419.2c0-32-9.6-60.8-25.6-86.4 3.2-12.8 6.4-25.6 6.4-38.4 0-28.8-6.4-54.4-19.2-76.8 0-6.4 3.2-16 3.2-22.4 0-35.2-9.6-67.2-32-96 0-51.2-16-89.6-44.8-118.4s-76.8-44.8-128-44.8h-70.4c-35.2 0-67.2 3.2-102.4 12.8s-73.6 19.2-115.2 35.2c-41.6 12.8-67.2 22.4-73.6 22.4h-153.6c-19.2 0-35.2 6.4-48 19.2s-19.2 28.8-19.2 48v345.6c0 19.2 6.4 35.2 19.2 48s28.8 19.2 48 19.2h147.2c12.8 9.6 38.4 35.2 73.6 83.2 19.2 25.6 38.4 51.2 57.6 67.2 9.6 9.6 16 25.6 19.2 44.8s9.6 44.8 16 67.2c6.4 22.4 19.2 41.6 32 57.6 16 16 32 25.6 51.2 25.6 28.8 0 57.6-6.4 80-16s41.6-28.8 54.4-54.4 19.2-57.6 19.2-99.2c0-32-9.6-67.2-25.6-102.4h96c38.4 0 70.4-12.8 96-41.6 25.6-32 38.4-64 38.4-99.2v0z" />
<glyph unicode="&#xe91c;" glyph-name="menu" d="M953.6 140.8v-105.6c0-9.6-3.2-19.2-9.6-25.6s-16-9.6-25.6-9.6h-812.8c-9.6 0-19.2 3.2-25.6 9.6s-9.6 16-9.6 25.6v105.6c0 9.6 3.2 19.2 9.6 25.6s12.8 12.8 25.6 12.8h812.8c9.6 0 19.2-3.2 25.6-9.6s9.6-19.2 9.6-28.8zM953.6 435.2l-3.2-105.6c0-9.6-3.2-19.2-9.6-25.6s-16-9.6-25.6-9.6h-812.8c-9.6 0-19.2 3.2-25.6 9.6s-9.6 16-9.6 25.6l3.2 105.6c0 9.6 3.2 19.2 9.6 25.6s16 9.6 25.6 9.6h812.8c9.6 0 19.2-3.2 25.6-9.6s9.6-16 9.6-25.6zM953.6 732.8v-105.6c0-9.6-3.2-19.2-9.6-25.6s-16-9.6-25.6-9.6h-812.8c-9.6 0-19.2 3.2-25.6 9.6-9.6 6.4-12.8 12.8-12.8 25.6v105.6c0 9.6 3.2 19.2 9.6 25.6s16 9.6 25.6 9.6h812.8c9.6 0 19.2-3.2 25.6-9.6 9.6-9.6 12.8-16 12.8-25.6z" />
<glyph unicode="&#xe91d;" glyph-name="minus" d="M512-60.8c-118.4 0-230.4 48-316.8 134.4-83.2 83.2-128 195.2-124.8 313.6 0 118.4 48 227.2 134.4 310.4 83.2 80 192 124.8 307.2 124.8 118.4 0 230.4-48 316.8-134.4 83.2-83.2 128-195.2 124.8-313.6 0-118.4-48-227.2-134.4-310.4-83.2-80-192-124.8-307.2-124.8zM508.8 713.6c-86.4 0-169.6-35.2-233.6-96s-99.2-144-99.2-233.6 32-172.8 96-236.8 147.2-99.2 236.8-99.2c86.4 0 169.6 35.2 233.6 96s99.2 144 99.2 233.6-32 172.8-96 236.8c-60.8 60.8-144 99.2-236.8 99.2v0zM336 451.2h336c19.2 0 32-12.8 32-32v-64c0-19.2-12.8-32-32-32h-336c-19.2 0-32 12.8-32 32v64c0 19.2 12.8 32 32 32z" />
<glyph unicode="&#xe91e;" glyph-name="people" d="M723.2 451.2c0-48-12.8-86.4-41.6-121.6 57.6-6.4 124.8-73.6 169.6-134.4 70.4 16 105.6 51.2 105.6 51.2-38.4 224-73.6 214.4-176 224 44.8 19.2 76.8 67.2 76.8 118.4 0 70.4-57.6 131.2-131.2 131.2-54.4 0-102.4-32-121.6-80 67.2-32 118.4-105.6 118.4-188.8zM348.8 323.2c-28.8 35.2-44.8 80-44.8 128 0 80 48 150.4 115.2 185.6-19.2 51.2-67.2 83.2-121.6 83.2-70.4 0-131.2-57.6-131.2-131.2 0-51.2 32-99.2 76.8-118.4-89.6-16-118.4 0-176-224 0 0 28.8-35.2 102.4-48 48 60.8 124.8 118.4 179.2 124.8zM579.2 300.8c57.6 28.8 92.8 80 92.8 147.2 0 89.6-70.4 160-156.8 160s-156.8-73.6-156.8-160c0-64 38.4-121.6 92.8-147.2-108.8-22.4-211.2-89.6-211.2-140.8v-57.6c0-35.2 28.8-64 64-64h425.6c35.2 0 64 28.8 64 64v57.6c-3.2 51.2-108.8 121.6-214.4 140.8z" />
<glyph unicode="&#xe91f;" glyph-name="play-inprogress" d="M512 825.6c80 0 156.8-19.2 224-57.6s121.6-92.8 160-160 57.6-140.8 57.6-224-19.2-156.8-57.6-224-96-121.6-163.2-160-140.8-57.6-224-57.6c-80 0-156.8 19.2-224 57.6s-121.6 92.8-163.2 163.2c-19.2 35.2-22.4 38.4-32 76.8l124.8 32c9.6-16 16-32 25.6-48 25.6-48 64-83.2 112-112s99.2-41.6 160-41.6 108.8 16 160 41.6c48 25.6 83.2 64 112 112s41.6 99.2 41.6 160c0 54.4-16 108.8-41.6 160-25.6 48-64 83.2-112 112s-99.2 41.6-160 41.6zM720 409.6l-304 176c-12.8 6.4-28.8 0-28.8-16v-355.2c0-12.8 16-22.4 28.8-16l307.2 176c9.6 9.6 9.6 25.6-3.2 35.2v0zM224 246.4c0-37.114-30.086-67.2-67.2-67.2s-67.2 30.086-67.2 67.2c0 37.114 30.086 67.2 67.2 67.2s67.2-30.086 67.2-67.2z" />
<glyph unicode="&#xe920;" glyph-name="plus" d="M512-57.6c-118.4 0-230.4 48-316.8 134.4-83.2 83.2-128 195.2-124.8 313.6 0 118.4 48 227.2 134.4 310.4 83.2 80 192 124.8 307.2 124.8 118.4 0 230.4-48 316.8-134.4 83.2-83.2 128-195.2 124.8-313.6 0-118.4-48-227.2-134.4-310.4-83.2-80-192-124.8-307.2-124.8zM505.6 716.8c-86.4 0-169.6-35.2-233.6-96s-99.2-144-99.2-233.6c0-89.6 32-172.8 96-236.8s147.2-99.2 236.8-99.2c86.4 0 169.6 35.2 233.6 96s99.2 144 99.2 233.6-32 172.8-96 236.8c-57.6 60.8-140.8 99.2-236.8 99.2v0zM332.8 448h339.2c19.2 0 32-12.8 32-32v-64c0-19.2-12.8-32-32-32h-339.2c-19.2 0-32 12.8-32 32v64c0 19.2 16 32 32 32zM576 553.6v-336c0-19.2-12.8-32-32-32h-64c-19.2 0-32 12.8-32 32v336c0 19.2 12.8 32 32 32h64c19.2 0 32-16 32-32z" />
<glyph unicode="&#xe921;" glyph-name="prev" d="M931.2 358.4c-51.2 124.8-188.8 188.8-412.8 188.8h-86.4v73.6c0 32-35.2 48-60.8 32l-288-192c-22.4-16-22.4-48 0-64l288-192c25.6-16 60.8 0 60.8 32v67.2h76.8c32 0 57.6 0 83.2-3.2 25.6 0 48-3.2 73.6-9.6 25.6-3.2 44.8-9.6 64-19.2 19.2-6.4 35.2-19.2 51.2-32s28.8-28.8 38.4-48c-9.6 16 9.6-6.4 22.4-64 6.4-25.6 9.6-54.4 9.6-86.4 0-16-3.2-35.2-3.2-57.6 0 0 0-3.2 0-9.6s0-9.6 0-12.8 0-9.6 3.2-12.8c0-3.2 6.4-3.2 9.6-3.2s9.6 3.2 12.8 9.6c3.2 3.2 3.2 6.4 6.4 9.6s3.2 6.4 6.4 12.8c3.2 6.4 6.4 9.6 6.4 12.8 41.6 89.6 60.8 160 60.8 211.2 0 64-9.6 115.2-22.4 156.8z" />
<glyph unicode="&#xe922;" glyph-name="print-preview" d="M924.8 419.2c-22.4 19.2-44.8 28.8-73.6 28.8h-35.2v134.4c0 16-3.2 28.8-9.6 48s-16 32-25.6 41.6l-76.8 80c-9.6 9.6-25.6 19.2-41.6 25.6-19.2 6.4-35.2 9.6-48 9.6h-358.4c-16 0-28.8-3.2-35.2-16-9.6-9.6-16-22.4-16-35.2v-288h-35.2c-28.8 0-57.6-6.4-76.8-28.8s-28.8-44.8-28.8-73.6v-220.8c0-6.4 3.2-9.6 6.4-12.8s9.6-6.4 12.8-6.4h121.6v-86.4c0-12.8 6.4-25.6 16-35.2s22.4-16 35.2-16h508.8c12.8 0 25.6 6.4 35.2 16s16 22.4 16 35.2v86.4h118.4c6.4 0 9.6 3.2 12.8 6.4s6.4 9.6 6.4 12.8v220.8c0 28.8-9.6 51.2-28.8 73.6zM748.8 38.4h-476.8v137.6h476.8v-137.6zM508.8 374.4c51.2 0 96 41.6 96 96 0 9.6 0 22.4-6.4 32 3.2 0 3.2-3.2 6.4-3.2 22.4-12.8 41.6-32 54.4-57.6-12.8-22.4-32-41.6-54.4-57.6-28.8-19.2-60.8-28.8-92.8-28.8s-67.2 9.6-92.8 28.8c-22.4 12.8-41.6 32-54.4 57.6 12.8 22.4 32 41.6 54.4 57.6 0 0 3.2 0 3.2 3.2-3.2-9.6-6.4-19.2-6.4-32-3.2-54.4 38.4-96 92.8-96zM435.2 480c0 19.2 16 35.2 35.2 35.2s35.2-16 35.2-35.2c0-19.2-16-35.2-35.2-35.2s-35.2 16-35.2 35.2zM748.8 380.8h-99.2c19.2 19.2 35.2 38.4 48 64-35.2 70.4-105.6 118.4-192 118.4-83.2 0-156.8-48-192-118.4 12.8-22.4 28.8-44.8 48-64h-89.6v339.2h339.2v-86.4c0-12.8 6.4-25.6 16-35.2s22.4-16 35.2-16h86.4v-201.6zM876.8 323.2c-6.4-6.4-12.8-9.6-22.4-9.6-6.4 0-16 3.2-22.4 9.6s-9.6 16-9.6 22.4 3.2 16 9.6 22.4 12.8 9.6 22.4 9.6c6.4 0 16-3.2 22.4-9.6s9.6-12.8 9.6-22.4-3.2-19.2-9.6-22.4z" />
<glyph unicode="&#xe923;" glyph-name="question" d="M707.2 524.8c0 92.8-96 160-182.4 160-80 0-144-35.2-185.6-105.6-3.2-6.4-3.2-16 3.2-22.4l67.2-51.2c3.2-3.2 6.4-3.2 9.6-3.2s9.6 3.2 12.8 6.4c22.4 28.8 32 38.4 41.6 44.8s25.6 12.8 41.6 12.8c32 0 60.8-19.2 60.8-41.6 0-25.6-12.8-38.4-44.8-54.4-35.2-16-83.2-57.6-83.2-105.6v-83.2c0-9.6 6.4-16 16-16h92.8c9.6 0 16 0 16 9.6 3.2 9.6-16 99.2 41.6 121.6 41.6 22.4 92.8 51.2 92.8 128v0zM512-57.6c-243.2 0-441.6 198.4-441.6 441.6s198.4 441.6 441.6 441.6 441.6-198.4 441.6-441.6-198.4-441.6-441.6-441.6zM512 761.6c-208 0-377.6-169.6-377.6-377.6s169.6-377.6 377.6-377.6c208 0 377.6 169.6 377.6 377.6s-169.6 377.6-377.6 377.6zM540.8 204.8h-60.8c-19.2 0-32-12.8-32-32v-60.8c0-19.2 12.8-32 32-32h60.8c19.2 0 32 12.8 32 32v60.8c0 16-12.8 32-32 32z" />
<glyph unicode="&#xe924;" glyph-name="question2" d="M512 825.6c-243.2 0-441.6-198.4-441.6-441.6s198.4-441.6 441.6-441.6 441.6 198.4 441.6 441.6-198.4 441.6-441.6 441.6zM572.8 112c0-19.2-12.8-32-32-32h-60.8c-19.2 0-32 12.8-32 32v60.8c0 19.2 12.8 32 32 32h60.8c19.2 0 32-16 32-32v-60.8zM614.4 396.8c-57.6-22.4-38.4-112-41.6-121.6 0-9.6-6.4-9.6-16-9.6h-92.8c-9.6 0-16 6.4-16 16v83.2c0 48 48 89.6 83.2 105.6 32 16 44.8 28.8 44.8 54.4 0 22.4-28.8 41.6-60.8 41.6-16 0-32-6.4-41.6-12.8s-19.2-16-41.6-44.8c-3.2-3.2-9.6-6.4-12.8-6.4s-6.4 0-9.6 3.2l-67.2 51.2c-6.4 6.4-6.4 16-3.2 22.4 41.6 70.4 105.6 105.6 185.6 105.6 86.4 0 182.4-67.2 182.4-160 0-76.8-51.2-105.6-92.8-128z" />
<glyph unicode="&#xe925;" glyph-name="reverse" d="M83.2 473.6h659.2v-80c0-28.8 35.2-41.6 54.4-22.4l147.2 144c12.8 12.8 12.8 32 0 44.8l-147.2 144c-19.2 19.2-54.4 6.4-54.4-22.4v-86.4h-659.2c-3.2 0-6.4 0-9.6-3.2s-3.2-6.4-3.2-9.6v-96c0-3.2 0-6.4 3.2-9.6s6.4-3.2 9.6-3.2zM947.2 278.4c-3.2 3.2-6.4 3.2-9.6 3.2h-659.2v83.2c0 28.8-35.2 41.6-54.4 22.4l-147.2-144c-12.8-12.8-12.8-32 0-44.8l147.2-144c19.2-19.2 54.4-6.4 54.4 22.4v83.2h662.4c3.2 0 6.4 0 9.6 3.2s3.2 6.4 3.2 9.6v96c0 3.2 0 6.4-6.4 9.6z" />
<glyph unicode="&#xe926;" glyph-name="time2" d="M892.8 598.4c-38.4 67.2-92.8 121.6-160 160s-140.8 57.6-220.8 57.6-153.6-19.2-220.8-57.6c-67.2-38.4-121.6-92.8-160-160s-57.6-140.8-57.6-220.8 19.2-153.6 57.6-220.8c38.4-67.2 92.8-121.6 160-160s140.8-57.6 220.8-57.6 153.6 19.2 220.8 57.6c67.2 38.4 121.6 92.8 160 160s57.6 140.8 57.6 220.8-19.2 153.6-57.6 220.8zM675.2 515.2l-105.6-182.4c-3.2-3.2-12.8-19.2-16-22.4-6.4-3.2-6.4-6.4-32-6.4h-137.6c-6.4 0-9.6 3.2-12.8 6.4s-6.4 6.4-6.4 12.8v35.2c0 6.4 3.2 9.6 6.4 12.8s6.4 6.4 12.8 6.4h128l99.2 172.8c3.2 3.2 6.4 6.4 9.6 9.6 3.2 0 9.6 0 12.8-3.2l32-19.2c3.2-3.2 6.4-6.4 9.6-9.6s3.2-6.4 0-12.8z" />
<glyph unicode="&#xe927;" glyph-name="twitter2" d="M918.4 857.6h-819.2c-35.2 0-64-28.8-64-64v-828.8c0-35.2 28.8-64 64-64h819.2c41.6 0 64 32 64 64v828.8c0 35.2-28.8 64-64 64zM864 560c0-6.4 0-16 0-22.4 0-240-182.4-515.2-515.2-515.2-102.4 0-198.4 28.8-278.4 80 16-3.2 28.8-3.2 44.8-3.2 86.4 0 163.2 28.8 224 76.8-80 3.2-147.2 54.4-169.6 124.8 12.8-3.2 22.4-3.2 35.2-3.2 16 0 32 3.2 48 6.4-83.2 16-144 89.6-144 179.2v3.2c25.6-12.8 51.2-22.4 83.2-22.4-48 32-80 89.6-80 150.4 0 35.2 9.6 64 25.6 92.8 89.6-108.8 224-182.4 374.4-188.8-3.2 12.8-3.2 28.8-3.2 41.6 0 99.2 80 182.4 182.4 182.4 51.2 0 99.2-22.4 131.2-57.6 32 3.2 73.6 19.2 108.8 38.4-12.8-41.6-41.6-76.8-80-99.2 35.2 3.2 70.4 16 102.4 28.8-25.6-35.2-54.4-67.2-89.6-92.8z" />
<glyph unicode="&#xe928;" glyph-name="viadeo2" d="M918.4 857.6h-819.2c-35.2 0-64-28.8-64-64v-828.8c0-35.2 28.8-64 64-64h819.2c38.4 0 64 28.8 64 64v828.8c0 35.2-28.8 64-64 64zM563.2 688c19.2-44.8 32-89.6 35.2-137.6-25.6 76.8-64 156.8-112 236.8 28.8-19.2 57.6-54.4 76.8-99.2zM662.4 67.2c-54.4-57.6-124.8-86.4-208-86.4-86.4 0-156.8 28.8-208 86.4-54.4 57.6-80 124.8-80 201.6 0 51.2 12.8 102.4 38.4 147.2s60.8 80 105.6 108.8 92.8 41.6 147.2 41.6c35.2 0 70.4-6.4 102.4-16-12.8-22.4-19.2-44.8-19.2-70.4-22.4 12.8-51.2 16-76.8 16-60.8 0-112-22.4-156.8-67.2s-64-96-64-156.8c0-60.8 19.2-112 60.8-156.8 32-32 70.4-54.4 115.2-60.8 32 12.8 57.6 28.8 80 54.4 12.8 25.6 32 51.2 44.8 83.2 16 32 22.4 64 32 102.4s16 73.6 16 105.6 3.2 64 3.2 96c0 25.6 0 44.8-3.2 54.4 22.4-54.4 35.2-115.2 35.2-172.8 0-70.4-16-134.4-44.8-188.8s-73.6-102.4-134.4-137.6c64 0 112 19.2 156.8 64 41.6 44.8 60.8 96 60.8 156.8 0 32-6.4 64-16 89.6 22.4 6.4 44.8 16 67.2 25.6 16-35.2 22.4-73.6 22.4-115.2 3.2-80-22.4-147.2-76.8-204.8zM848 544c-12.8-28.8-28.8-51.2-48-70.4-12.8-25.6-38.4-35.2-64-35.2-32 0-60.8 16-89.6 41.6 80 44.8 134.4 86.4 160 134.4 6.4 16 12.8 22.4 12.8 32-16-35.2-41.6-64-76.8-89.6s-73.6-44.8-112-51.2c-12.8 19.2-19.2 41.6-19.2 60.8 0 16 3.2 28.8 9.6 44.8s16 28.8 22.4 38.4c16 16 44.8 28.8 86.4 41.6 22.4 6.4 41.6 16 57.6 32s32 35.2 41.6 54.4c25.6-38.4 41.6-83.2 41.6-137.6-9.6-41.6-16-70.4-22.4-96z" />
<glyph unicode="&#xe929;" glyph-name="waiting" d="M675.2 380.8c124.8 80 208 217.6 208 390.4 0 9.6 0 16 0 25.6 0 19.2-16 32-32 32l-678.4 3.2c-19.2 0-32-12.8-32-32 0-9.6 0-16 0-25.6 0-172.8 83.2-313.6 208-390.4-124.8-80-208-214.4-208-387.2 0-9.6 0-16 0-25.6 0-19.2 16-32 32-32h675.2c19.2 0 32 12.8 32 32 0 9.6 0 16 0 25.6 3.2 172.8-83.2 307.2-204.8 384zM227.2-22.4c-19.2 0-35.2 16-32 35.2 9.6 144 73.6 265.6 182.4 313.6 12.8 6.4 22.4 12.8 32 25.6l6.4 9.6c6.4 9.6 6.4 25.6 0 35.2l-6.4 9.6c-6.4 12.8-19.2 19.2-32 25.6-118.4 57.6-185.6 192-185.6 352v0h633.6c0-160-64-297.6-182.4-348.8-12.8-6.4-22.4-12.8-28.8-25.6l-6.4-9.6c-6.4-9.6-6.4-25.6 0-35.2l6.4-9.6c6.4-9.6 19.2-19.2 28.8-25.6 108.8-48 172.8-169.6 182.4-313.6 0-19.2-12.8-35.2-32-35.2h-566.4zM643.2 233.6c-64 35.2-105.6 89.6-105.6 118.4v57.6c0 28.8 35.2 73.6 99.2 112 19.2 9.6 35.2 28.8 51.2 48 16 22.4 0 54.4-25.6 54.4h-300.8c-28.8 0-41.6-32-25.6-54.4 16-19.2 32-38.4 51.2-48 64-35.2 92.8-83.2 92.8-112v-57.6c0-28.8-44.8-83.2-108.8-121.6-54.4-32-83.2-96-105.6-169.6-6.4-22.4 9.6-41.6 32-41.6h419.2c22.4 0 38.4 22.4 32 41.6-19.2 73.6-51.2 140.8-105.6 172.8z" />
<glyph unicode="&#xe92a;" glyph-name="warning2" d="M944 25.6l-380.8 761.6c-16 25.6-32 38.4-51.2 38.4s-38.4-12.8-51.2-38.4l-380.8-761.6c-28.8-51.2-3.2-96 54.4-96h752c60.8 0 86.4 41.6 57.6 96zM512 32c-35.2 0-64 28.8-64 64s28.8 64 64 64 64-28.8 64-64-28.8-64-64-64zM576 288c0-35.2-28.8-64-64-64s-64 28.8-64 64v192c0 35.2 28.8 64 64 64s64-28.8 64-64v-192z" />
<glyph unicode="&#xe92b;" glyph-name="xing2" d="M918.4 857.6h-819.2c-35.2 0-64-28.8-64-64v-828.8c0-35.2 28.8-64 64-64h822.4c41.6 0 60.8 25.6 60.8 64v828.8c0 35.2-28.8 64-64 64zM240 195.2h-150.4c-9.6 0-16 3.2-19.2 9.6s-3.2 16 0 22.4l160 256-102.4 160c-3.2 9.6-3.2 16 0 22.4 6.4 3.2 12.8 6.4 22.4 6.4h150.4c22.4 0 35.2-12.8 41.6-25.6l102.4-163.2c-6.4-9.6-163.2-262.4-163.2-262.4-9.6-12.8-19.2-25.6-41.6-25.6zM950.4 800l-332.8-508.8 211.2-332.8c3.2-6.4 3.2-12.8 0-19.2s-9.6-9.6-19.2-9.6h-150.4c-22.4 0-35.2 12.8-41.6 25.6l-211.2 336c9.6 16 332.8 508.8 332.8 508.8 9.6 12.8 19.2 25.6 41.6 25.6l150.4 3.2c9.6 0 16-3.2 19.2-9.6s3.2-12.8 0-19.2z" />
<glyph unicode="&#xe92c;" glyph-name="abduct" d="M809.6 268.8c0-9.6-3.2-19.2-9.6-25.6l-259.2-259.2c-6.4-6.4-16-9.6-25.6-9.6s-19.2 3.2-25.6 9.6l-259.2 259.2c-6.4 6.4-9.6 16-9.6 25.6s3.2 19.2 9.6 25.6c6.4 6.4 16 9.6 25.6 9.6h518.4c9.6 0 19.2-3.2 25.6-9.6 6.4-9.6 9.6-16 9.6-25.6z" />
<glyph unicode="&#xe92d;" glyph-name="add" d="M921.6 300.8h-822.4c-19.2 0-32 12.8-32 32v99.2c0 19.2 12.8 32 32 32h822.4c19.2 0 32-12.8 32-32v-99.2c0-16-16-32-32-32zM428.8-19.2v800c0 19.2 12.8 32 32 32h99.2c19.2 0 32-12.8 32-32v-800c0-19.2-12.8-32-32-32h-99.2c-19.2 0-32 12.8-32 32z" />
<glyph unicode="&#xe92e;" glyph-name="affix" d="M809.6 489.6c0-9.6-3.2-19.2-9.6-25.6s-16-9.6-25.6-9.6h-521.6c-9.6 0-19.2 3.2-25.6 9.6s-12.8 16-9.6 25.6c0 9.6 3.2 19.2 9.6 25.6l259.2 259.2c6.4 6.4 16 9.6 25.6 9.6s19.2-3.2 25.6-9.6l259.2-259.2c9.6-6.4 12.8-16 12.8-25.6z" />
<glyph unicode="&#xe92f;" glyph-name="airplane" d="M732.8 268.8l-156.8 156.8 380.8 284.8-96 96c-9.6 9.6-22.4 12.8-35.2 6.4l-457.6-179.2-150.4 147.2c-41.6 44.8-102.4 54.4-134.4 22.4s-19.2-89.6 25.6-131.2l147.2-150.4-182.4-454.4c-3.2-12.8-3.2-25.6 6.4-35.2l96-96 284.8 380.8 156.8-156.8v-192c0-19.2 12.8-32 32-32h80l51.2 150.4c3.2 9.6 9.6 16 19.2 19.2l150.4 51.2v80c0 19.2-12.8 32-32 32h-185.6z" />
<glyph unicode="&#xe930;" glyph-name="arrow-down" d="M953.6 400c0-19.2-6.4-38.4-22.4-51.2l-368-371.2c-16-12.8-32-22.4-51.2-22.4s-38.4 6.4-51.2 22.4l-371.2 371.2c-16 12.8-22.4 32-22.4 51.2s6.4 38.4 22.4 51.2l41.6 41.6c16 12.8 32 22.4 51.2 22.4s38.4-6.4 51.2-22.4l166.4-166.4v403.2c0 19.2 6.4 38.4 22.4 51.2 16 16 32 22.4 51.2 22.4h73.6c19.2 0 38.4-6.4 51.2-22.4 16-16 22.4-32 22.4-51.2v-400l166.4 166.4c12.8 12.8 32 22.4 51.2 22.4s38.4-6.4 51.2-22.4l41.6-41.6c16-16 22.4-32 22.4-54.4z" />
<glyph unicode="&#xe931;" glyph-name="arrow-up" d="M931.2 307.2l-41.6-41.6c-16-12.8-32-22.4-51.2-22.4s-38.4 6.4-51.2 22.4l-166.4 166.4v-400c0-19.2-6.4-35.2-22.4-51.2s-32-22.4-51.2-22.4h-73.6c-19.2 0-35.2 6.4-51.2 22.4s-22.4 32-22.4 51.2v400l-166.4-166.4c-12.8-12.8-32-22.4-51.2-22.4s-38.4 6.4-51.2 22.4l-41.6 41.6c-16 16-22.4 32-22.4 51.2s6.4 38.4 22.4 51.2l368 371.2c12.8 12.8 32 22.4 51.2 22.4s38.4-6.4 51.2-22.4l371.2-371.2c12.8-12.8 22.4-32 22.4-51.2s-6.4-35.2-22.4-51.2z" />
<glyph unicode="&#xe932;" glyph-name="award" d="M620.8 246.4c16 28.8 41.6 41.6 73.6 41.6s48 16 51.2 51.2c0 32 16 57.6 41.6 73.6 28.8 16 35.2 38.4 19.2 67.2s-16 57.6 0 86.4c16 28.8 9.6 51.2-19.2 67.2s-41.6 41.6-41.6 73.6c0 32-16 48-51.2 48-32 0-57.6 16-73.6 41.6-16 28.8-38.4 35.2-67.2 19.2s-57.6-16-86.4 0c-28.8 19.2-51.2 12.8-67.2-16s-41.6-41.6-73.6-41.6c-32 0-48-16-48-48s-16-57.6-41.6-73.6c-28.8-16-35.2-38.4-19.2-67.2s16-57.6 0-86.4c-16-28.8-9.6-51.2 19.2-67.2s41.6-41.6 41.6-73.6c0-32 16-48 48-51.2 32 0 57.6-16 73.6-41.6 16-28.8 38.4-35.2 67.2-19.2s57.6 16 86.4 0c28.8-19.2 51.2-12.8 67.2 16zM512 345.6c-99.2 0-179.2 80-179.2 179.2s80 179.2 179.2 179.2c99.2 0 179.2-80 179.2-179.2-3.2-99.2-83.2-179.2-179.2-179.2zM323.2 262.4c-35.2 0-38.4 16-38.4 16l-134.4-262.4 108.8 12.8 60.8-89.6c0 0 124.8 259.2 124.8 256-67.2 0-41.6 67.2-121.6 67.2zM736 268.8c-99.2-9.6-76.8-35.2-99.2-54.4-28.8-25.6-60.8-22.4-60.8-22.4l150.4-259.2 38.4 96 105.6-12.8-134.4 252.8zM547.2 563.2l-35.2 73.6-38.4-76.8-83.2-12.8 60.8-57.6-12.8-83.2 73.6 41.6 73.6-38.4-12.8 83.2 60.8 57.6-86.4 12.8z" />
<glyph unicode="&#xe933;" glyph-name="bell" d="M857.6 230.4l-64 64c-22.4 22.4-32 48-32 80v137.6c0 121.6-83.2 227.2-195.2 252.8 0 3.2 0 3.2 0 6.4 0 32-25.6 54.4-54.4 54.4s-57.6-25.6-57.6-54.4c0-3.2 0-3.2 0-6.4-112-25.6-195.2-124.8-195.2-246.4v-147.2c0-28.8-12.8-57.6-32-80l-64-64c-9.6-9.6-16-25.6-16-38.4v-60.8h723.2v60.8c3.2 16-3.2 28.8-12.8 41.6v0zM400 44.8c0-60.8 51.2-112 112-112s112 51.2 112 112v25.6h-224v-25.6z" />
<glyph unicode="&#xe934;" glyph-name="blocked" d="M822.4 694.4c-83.2 83.2-195.2 131.2-313.6 131.2s-227.2-48-310.4-131.2-131.2-195.2-131.2-313.6 44.8-230.4 131.2-313.6 195.2-131.2 313.6-131.2 230.4 44.8 313.6 131.2 131.2 195.2 131.2 313.6-48 230.4-134.4 313.6zM841.6 380.8c0-70.4-22.4-137.6-60.8-192l-464 460.8c54.4 38.4 121.6 60.8 192 60.8 185.6 3.2 332.8-147.2 332.8-329.6zM179.2 380.8c0 70.4 22.4 137.6 60.8 192l464-464c-54.4-38.4-121.6-60.8-192-60.8-185.6 0-332.8 147.2-332.8 332.8z" />
<glyph unicode="&#xe935;" glyph-name="book" d="M246.4 688h-153.6c-12.8 0-25.6-12.8-25.6-25.6v-566.4c0-12.8 12.8-25.6 25.6-25.6h153.6c12.8 0 25.6 12.8 25.6 25.6v566.4c3.2 16-9.6 25.6-25.6 25.6zM220.8 534.4h-102.4v51.2h102.4v-51.2zM505.6 688h-153.6c-12.8 0-25.6-12.8-25.6-25.6v-566.4c0-12.8 12.8-25.6 25.6-25.6h153.6c12.8 0 25.6 12.8 25.6 25.6v566.4c0 16-12.8 25.6-25.6 25.6zM480 534.4h-102.4v51.2h102.4v-51.2zM684.8 649.6l-137.6-70.4c-12.8-6.4-19.2-22.4-12.8-35.2l233.6-460.8c6.4-12.8 22.4-19.2 35.2-12.8l137.6 70.4c12.8 6.4 19.2 22.4 12.8 35.2l-233.6 460.8c-6.4 12.8-22.4 19.2-35.2 12.8zM816 96c0-12.8-12.8-25.6-25.6-25.6s-25.6 12.8-25.6 25.6c0 12.8 12.8 25.6 25.6 25.6s25.6-9.6 25.6-25.6z" />
<glyph unicode="&#xe936;" glyph-name="bookmark" d="M812.8 748.8h-604.8v-732.8l300.8 291.2 51.2-51.2 249.6-240c3.2 0 3.2 732.8 3.2 732.8zM819.2 825.6c9.6 0 19.2-3.2 25.6-6.4 12.8-6.4 22.4-12.8 32-25.6 6.4-9.6 12.8-22.4 12.8-35.2v-758.4c0-12.8-3.2-25.6-12.8-35.2-6.4-9.6-19.2-19.2-32-25.6-6.4-3.2-16-3.2-25.6-3.2-19.2 0-35.2 6.4-48 19.2l-259.2 249.6-259.2-249.6c-12.8-12.8-32-19.2-48-19.2-9.6 0-19.2 3.2-25.6 6.4-12.8 6.4-22.4 12.8-32 25.6-6.4 9.6-12.8 22.4-12.8 35.2v755.2c0 12.8 3.2 25.6 12.8 35.2s19.2 19.2 32 25.6c3.2 3.2 12.8 6.4 22.4 6.4 0 0 617.6 0 617.6 0z" />
<glyph unicode="&#xe937;" glyph-name="bookmark2" d="M819.2 825.6c9.6 0 19.2-3.2 25.6-6.4 12.8-6.4 22.4-12.8 32-25.6 6.4-9.6 12.8-22.4 12.8-35.2v-758.4c0-12.8-3.2-25.6-12.8-35.2-6.4-9.6-19.2-19.2-32-25.6-6.4-3.2-16-3.2-25.6-3.2-19.2 0-35.2 6.4-48 19.2l-259.2 249.6-259.2-249.6c-12.8-12.8-32-19.2-48-19.2-9.6 0-19.2 3.2-25.6 6.4-12.8 6.4-22.4 12.8-32 25.6-6.4 9.6-12.8 22.4-12.8 35.2v755.2c0 12.8 3.2 25.6 12.8 35.2s19.2 19.2 32 25.6c3.2 3.2 12.8 6.4 22.4 6.4 0 0 617.6 0 617.6 0z" />
<glyph unicode="&#xe938;" glyph-name="bottom" d="M560 140.8l374.4 374.4c12.8 12.8 22.4 35.2 22.4 51.2s-9.6 35.2-22.4 48c-28.8 28.8-67.2 28.8-96 0l-326.4-326.4-326.4 326.4c-28.8 28.8-67.2 28.8-96 0s-28.8-70.4 0-99.2l374.4-374.4c12.8-12.8 32-19.2 48-19.2 19.2 0 32 6.4 48 19.2z" />
<glyph unicode="&#xe939;" glyph-name="caddie" d="M889.6 444.8h-38.4c0 166.4-153.6 304-339.2 304s-342.4-137.6-342.4-304h-38.4c-35.2 0-64-28.8-64-64l64-316.8c0-35.2 28.8-64 64-64h630.4c35.2 0 64 28.8 64 64l64 316.8c0 35.2-28.8 64-64 64zM249.6 444.8c0 128 118.4 233.6 262.4 233.6s262.4-105.6 262.4-233.6h-524.8z" />
<glyph unicode="&#xe93a;" glyph-name="calendar-add" d="M860.8 697.6c16 0 32-6.4 44.8-19.2s19.2-28.8 19.2-44.8v-636.8c0-16-6.4-32-19.2-44.8s-28.8-19.2-44.8-19.2h-700.8c-16 0-32 6.4-44.8 19.2s-19.2 28.8-19.2 44.8v636.8c0 16 6.4 32 19.2 44.8s25.6 19.2 44.8 19.2h64v48c0 22.4 6.4 41.6 22.4 57.6s35.2 22.4 57.6 22.4h32c22.4 0 41.6-6.4 57.6-22.4s22.4-35.2 22.4-57.6v-48h192v48c0 22.4 6.4 41.6 22.4 57.6s35.2 22.4 57.6 22.4h32c22.4 0 41.6-6.4 57.6-22.4s22.4-35.2 22.4-57.6v-48c-3.2 0 60.8 0 60.8 0zM668.8 745.6v-144c0-3.2 0-9.6 3.2-12.8s6.4-3.2 12.8-3.2h32c3.2 0 9.6 0 12.8 3.2s3.2 6.4 3.2 12.8v144c0 3.2 0 9.6-3.2 12.8s-6.4 3.2-12.8 3.2h-32c-3.2 0-9.6 0-12.8-3.2s-3.2-6.4-3.2-12.8zM288 745.6v-144c0-3.2 0-9.6 3.2-12.8s6.4-3.2 12.8-3.2h32c3.2 0 9.6 0 12.8 3.2s3.2 9.6 3.2 12.8v144c0 3.2 0 9.6-3.2 12.8s-6.4 3.2-12.8 3.2h-32c-3.2 0-9.6 0-12.8-3.2s-3.2-6.4-3.2-12.8zM860.8-3.2v508.8h-700.8v-508.8h700.8zM540.8 284.8h112c3.2 0 9.6 0 12.8-3.2s3.2-6.4 3.2-12.8v-32c0-3.2 0-9.6-3.2-12.8s-6.4-3.2-12.8-3.2h-112v-112c0-3.2 0-9.6-3.2-12.8s-6.4-3.2-12.8-3.2h-32c-3.2 0-9.6 0-12.8 3.2 0 3.2 0 6.4 0 12.8v112h-112c-3.2 0-9.6 0-12.8 3.2s-3.2 6.4-3.2 12.8v32c0 3.2 0 9.6 3.2 12.8s6.4 3.2 12.8 3.2h112v112c0 3.2 0 9.6 3.2 12.8s6.4 3.2 12.8 3.2h32c3.2 0 9.6 0 12.8-3.2s3.2-6.4 3.2-12.8v-112z" />
<glyph unicode="&#xe93b;" glyph-name="calendar-checked" d="M745.6 345.6l-256-256c-3.2-3.2-6.4-3.2-12.8-3.2s-9.6 0-12.8 3.2l-144 144c0 3.2 0 6.4 0 12.8s0 6.4 3.2 9.6l22.4 22.4c3.2 3.2 6.4 3.2 9.6 3.2s9.6 0 12.8-3.2l108.8-108.8 220.8 220.8c3.2 3.2 6.4 3.2 12.8 3.2 3.2 0 6.4 0 9.6-3.2l22.4-22.4c3.2-3.2 3.2-6.4 3.2-9.6 3.2-6.4 3.2-9.6 0-12.8zM160-3.2h700.8v508.8h-700.8c0 0 0-508.8 0-508.8zM352 601.6v144c0 3.2 0 9.6-3.2 12.8s-6.4 3.2-12.8 3.2h-32c-3.2 0-9.6 0-12.8-3.2s-3.2-6.4-3.2-12.8v-144c0-3.2 0-9.6 3.2-12.8s6.4-3.2 12.8-3.2h32c3.2 0 9.6 0 12.8 3.2 0 6.4 3.2 9.6 3.2 12.8zM732.8 601.6v144c0 3.2 0 9.6-3.2 12.8s-6.4 3.2-12.8 3.2h-32c-3.2 0-9.6 0-12.8-3.2s-3.2-6.4-3.2-12.8v-144c0-3.2 0-9.6 3.2-12.8s6.4-3.2 12.8-3.2h32c3.2 0 9.6 0 12.8 3.2 3.2 6.4 3.2 9.6 3.2 12.8zM924.8 633.6v-636.8c0-16-6.4-32-19.2-44.8s-28.8-19.2-44.8-19.2h-700.8c-16 0-32 6.4-44.8 19.2s-19.2 28.8-19.2 44.8v636.8c0 16 6.4 32 19.2 44.8s28.8 19.2 44.8 19.2h64v48c0 22.4 6.4 41.6 22.4 57.6s35.2 22.4 57.6 22.4h32c22.4 0 41.6-6.4 57.6-22.4 12.8-16 22.4-35.2 22.4-57.6v-48h192v48c0 22.4 6.4 41.6 22.4 57.6s35.2 22.4 57.6 22.4h32c22.4 0 41.6-6.4 57.6-22.4s22.4-35.2 22.4-57.6v-48h64c16 0 32-6.4 44.8-19.2 9.6-12.8 16-25.6 16-44.8z" />
<glyph unicode="&#xe93c;" glyph-name="calendar-delete" d="M649.6 134.4l-22.4-22.4c-3.2-3.2-6.4-3.2-9.6-3.2s-9.6 0-12.8 3.2l-92.8 96-96-96c-3.2-3.2-6.4-3.2-12.8-3.2-3.2 0-6.4 0-9.6 3.2l-22.4 22.4c-3.2 3.2-3.2 6.4-3.2 9.6s0 9.6 3.2 12.8l92.8 92.8-92.8 92.8c-3.2 3.2-3.2 6.4-3.2 12.8 0 3.2 0 6.4 3.2 9.6l22.4 22.4c3.2 3.2 6.4 3.2 9.6 3.2s9.6 0 12.8-3.2l92.8-92.8 92.8 92.8c3.2 3.2 6.4 3.2 12.8 3.2s6.4 0 9.6-3.2l22.4-22.4c3.2-3.2 3.2-6.4 3.2-9.6s0-9.6-3.2-12.8l-92.8-92.8 92.8-92.8c3.2-3.2 3.2-6.4 3.2-12.8 3.2-3.2 3.2-6.4 0-9.6zM160-3.2h700.8v508.8h-700.8c0 0 0-508.8 0-508.8zM352 601.6v144c0 3.2 0 9.6-3.2 12.8s-6.4 3.2-12.8 3.2h-32c-3.2 0-9.6 0-12.8-3.2s-3.2-6.4-3.2-12.8v-144c0-3.2 0-9.6 3.2-12.8s6.4-3.2 12.8-3.2h32c3.2 0 9.6 0 12.8 3.2 0 6.4 3.2 9.6 3.2 12.8zM732.8 601.6v144c0 3.2 0 9.6-3.2 12.8s-6.4 3.2-12.8 3.2h-32c-3.2 0-9.6 0-12.8-3.2s-3.2-6.4-3.2-12.8v-144c0-3.2 0-9.6 3.2-12.8s6.4-3.2 12.8-3.2h32c3.2 0 9.6 0 12.8 3.2 3.2 6.4 3.2 9.6 3.2 12.8zM924.8 633.6v-636.8c0-16-6.4-32-19.2-44.8s-28.8-19.2-44.8-19.2h-700.8c-16 0-32 6.4-44.8 19.2s-19.2 28.8-19.2 44.8v636.8c0 16 6.4 32 19.2 44.8s25.6 19.2 44.8 19.2h64v48c0 22.4 6.4 41.6 22.4 57.6s35.2 22.4 57.6 22.4h32c22.4 0 41.6-6.4 57.6-22.4s22.4-35.2 22.4-57.6v-48h192v48c0 22.4 6.4 41.6 22.4 57.6s35.2 22.4 57.6 22.4h32c22.4 0 41.6-6.4 57.6-22.4s22.4-35.2 22.4-57.6v-48h64c16 0 32-6.4 44.8-19.2 9.6-12.8 16-25.6 16-44.8z" />
<glyph unicode="&#xe93d;" glyph-name="calendar-empty" d="M160-3.2h700.8v508.8h-700.8c0 0 0-508.8 0-508.8zM352 601.6v144c0 3.2 0 9.6-3.2 12.8s-6.4 3.2-12.8 3.2h-32c-3.2 0-9.6 0-12.8-3.2s-3.2-6.4-3.2-12.8v-144c0-3.2 0-9.6 3.2-12.8s6.4-3.2 12.8-3.2h32c3.2 0 9.6 0 12.8 3.2 0 6.4 3.2 9.6 3.2 12.8zM732.8 601.6v144c0 3.2 0 9.6-3.2 12.8s-6.4 3.2-12.8 3.2h-32c-3.2 0-9.6 0-12.8-3.2s-3.2-6.4-3.2-12.8v-144c0-3.2 0-9.6 3.2-12.8s6.4-3.2 12.8-3.2h32c3.2 0 9.6 0 12.8 3.2 3.2 6.4 3.2 9.6 3.2 12.8zM924.8 633.6v-636.8c0-16-6.4-32-19.2-44.8s-28.8-19.2-44.8-19.2h-700.8c-16 0-32 6.4-44.8 19.2s-19.2 28.8-19.2 44.8v636.8c0 16 6.4 32 19.2 44.8s25.6 19.2 44.8 19.2h64v48c0 22.4 6.4 41.6 22.4 57.6s35.2 22.4 57.6 22.4h32c22.4 0 41.6-6.4 57.6-22.4s22.4-35.2 22.4-57.6v-48h192v48c0 22.4 6.4 41.6 22.4 57.6s35.2 22.4 57.6 22.4h32c22.4 0 41.6-6.4 57.6-22.4s22.4-35.2 22.4-57.6v-48h64c16 0 32-6.4 44.8-19.2 9.6-12.8 16-25.6 16-44.8z" />
<glyph unicode="&#xe93e;" glyph-name="calendar-minus" d="M668.8 268.8v-32c0-3.2 0-9.6-3.2-12.8s-6.4-3.2-12.8-3.2h-288c-3.2 0-9.6 0-12.8 3.2 0 3.2 0 6.4 0 12.8v32c0 3.2 0 9.6 3.2 12.8s6.4 3.2 12.8 3.2h288c3.2 0 9.6 0 12.8-3.2s0-9.6 0-12.8zM160-3.2h700.8v508.8h-700.8c0 0 0-508.8 0-508.8zM352 601.6v144c0 3.2 0 9.6-3.2 12.8s-6.4 3.2-12.8 3.2h-32c-3.2 0-9.6 0-12.8-3.2s-3.2-6.4-3.2-12.8v-144c0-3.2 0-9.6 3.2-12.8s6.4-3.2 12.8-3.2h32c3.2 0 9.6 0 12.8 3.2 0 6.4 3.2 9.6 3.2 12.8zM732.8 601.6v144c0 3.2 0 9.6-3.2 12.8s-6.4 3.2-12.8 3.2h-32c-3.2 0-9.6 0-12.8-3.2s-3.2-6.4-3.2-12.8v-144c0-3.2 0-9.6 3.2-12.8s6.4-3.2 12.8-3.2h32c3.2 0 9.6 0 12.8 3.2 3.2 6.4 3.2 9.6 3.2 12.8zM924.8 633.6v-636.8c0-16-6.4-32-19.2-44.8s-28.8-19.2-44.8-19.2h-700.8c-16 0-32 6.4-44.8 19.2s-19.2 28.8-19.2 44.8v636.8c0 16 6.4 32 19.2 44.8s25.6 19.2 44.8 19.2h64v48c0 22.4 6.4 41.6 22.4 57.6s35.2 22.4 57.6 22.4h32c22.4 0 41.6-6.4 57.6-22.4s22.4-35.2 22.4-57.6v-48h192v48c0 22.4 6.4 41.6 22.4 57.6s35.2 22.4 57.6 22.4h32c22.4 0 41.6-6.4 57.6-22.4s22.4-35.2 22.4-57.6v-48h64c16 0 32-6.4 44.8-19.2 9.6-12.8 16-25.6 16-44.8z" />
<glyph unicode="&#xe93f;" glyph-name="calendar" d="M160-3.2h144v144h-144c0 0 0-144 0-144zM336-3.2h160v144h-160c0 0 0-144 0-144zM160 172.8h144v160h-144c0 0 0-160 0-160zM336 172.8h160v160h-160c0 0 0-160 0-160zM160 364.8h144v144h-144c0-3.2 0-144 0-144zM524.8-3.2h160v144h-160c0 0 0-144 0-144zM336 364.8h160v144h-160c0-3.2 0-144 0-144zM716.8-3.2h144v144h-144v-144zM524.8 172.8h160v160h-160c0 0 0-160 0-160zM352 601.6v144c0 3.2 0 9.6-3.2 12.8s-6.4 3.2-12.8 3.2h-32c-3.2 0-9.6 0-12.8-3.2s-3.2-9.6-3.2-12.8v-144c0-3.2 0-9.6 3.2-12.8s6.4-3.2 12.8-3.2h32c3.2 0 9.6 0 12.8 3.2 0 6.4 3.2 9.6 3.2 12.8zM716.8 172.8h144v160h-144v-160zM524.8 364.8h160v144h-160c0-3.2 0-144 0-144zM716.8 364.8h144v144h-144v-144zM732.8 601.6v144c0 3.2 0 9.6-3.2 12.8s-6.4 3.2-12.8 3.2h-32c-3.2 0-9.6 0-12.8-3.2s-3.2-6.4-3.2-12.8v-144c0-3.2 0-9.6 3.2-12.8s6.4-3.2 12.8-3.2h32c3.2 0 9.6 0 12.8 3.2 3.2 6.4 3.2 9.6 3.2 12.8zM924.8 633.6v-636.8c0-16-6.4-32-19.2-44.8s-28.8-19.2-44.8-19.2h-700.8c-16 0-32 6.4-44.8 19.2s-19.2 28.8-19.2 44.8v636.8c0 16 6.4 32 19.2 44.8s25.6 19.2 44.8 19.2h64v48c0 22.4 6.4 41.6 22.4 57.6s35.2 22.4 57.6 22.4h32c22.4 0 41.6-6.4 57.6-22.4s22.4-35.2 22.4-57.6v-48h192v48c0 22.4 6.4 41.6 22.4 57.6s35.2 22.4 57.6 22.4h32c22.4 0 41.6-6.4 57.6-22.4s22.4-35.2 22.4-57.6v-48h64c16 0 32-6.4 44.8-19.2 9.6-12.8 16-25.6 16-44.8z" />
<glyph unicode="&#xe940;" glyph-name="card-people" d="M499.2 313.6h-22.4c-9.6 0-19.2 9.6-19.2 19.2 0 3.2 3.2 9.6 3.2 9.6 12.8 12.8 22.4 28.8 32 44.8 0 0 3.2-3.2 6.4-3.2 12.8 0 25.6 25.6 25.6 44.8s-3.2 32-12.8 32c0 0-3.2 0-3.2 0 0 48-12.8 112-89.6 112-80 0-86.4-60.8-89.6-112 0 0-3.2 0-3.2 0-12.8 0-12.8-16-12.8-32s12.8-44.8 25.6-44.8c0 0 3.2 0 3.2 0 6.4-16 19.2-32 28.8-44.8 3.2-3.2 3.2-6.4 3.2-9.6 0-9.6-9.6-19.2-19.2-19.2h-22.4c-44.8 0-83.2-38.4-83.2-83.2v-22.4c0-16 12.8-25.6 25.6-25.6h278.4c16 0 25.6 12.8 25.6 25.6v22.4c3.2 51.2-32 86.4-80 86.4v0zM748.8 544h-233.6c6.4-16 12.8-32 12.8-54.4 6.4-3.2 9.6-9.6 12.8-12.8h208c9.6 0 19.2 9.6 19.2 19.2v32c0 6.4-6.4 16-19.2 16v0zM748.8 416h-204.8c-6.4-22.4-19.2-41.6-38.4-48 0 0 0-3.2-3.2-3.2v-19.2h243.2c9.6 0 19.2 9.6 19.2 19.2v32c3.2 9.6-3.2 19.2-16 19.2zM748.8 288h-160c9.6-16 16-35.2 16-57.6v-12.8h140.8c9.6 0 19.2 9.6 19.2 19.2v32c3.2 9.6-3.2 19.2-16 19.2zM832 739.2h-643.2c-67.2 0-118.4-54.4-118.4-118.4v-476.8c0-67.2 54.4-118.4 118.4-118.4h643.2c67.2 0 118.4 54.4 118.4 118.4v473.6c3.2 67.2-51.2 121.6-118.4 121.6v0zM896 140.8c0-35.2-28.8-64-64-64h-643.2c-35.2 0-64 28.8-64 64v476.8c0 35.2 28.8 64 64 64h643.2c35.2 0 64-28.8 64-64v-476.8z" />
<glyph unicode="&#xe941;" glyph-name="chart-graph" d="M953.6 102.4v-54.4h-886.4v662.4h54.4v-608h832zM787.2 544l112-387.2h-720v249.6l195.2 249.6 249.6-249.6 163.2 137.6z" />
<glyph unicode="&#xe942;" glyph-name="chart-histogram" d="M345.6 380.8v-220.8h-112v220.8h112zM512 601.6v-441.6h-112v441.6c0 0 112 0 112 0zM953.6 102.4v-54.4h-886.4v662.4h54.4v-608h832zM678.4 489.6v-329.6h-112v329.6c0 0 112 0 112 0zM841.6 656v-496h-112v496c3.2 0 112 0 112 0z" />
<glyph unicode="&#xe943;" glyph-name="chart-pie" d="M457.6 128c-121.6 0-220.8 99.2-220.8 220.8s99.2 220.8 220.8 220.8c0 0 0 0 3.2 0 0 83.2 0 169.6 0 169.6-70.4 0-137.6-19.2-198.4-54.4s-105.6-80-140.8-140.8c-35.2-60.8-54.4-124.8-54.4-198.4 0-70.4 19.2-137.6 54.4-198.4s83.2-108.8 144-144 124.8-54.4 198.4-54.4c54.4 0 105.6 9.6 153.6 32 48 19.2 89.6 48 128 86.4l-124.8 124.8c-44.8-38.4-99.2-64-163.2-64zM809.6 345.6c0-6.4 0-9.6 0-16 0-67.2-28.8-124.8-73.6-166.4l99.2-99.2c38.4 35.2 67.2 80 86.4 128s32 99.2 32 153.6h-144zM534.4 649.6c121.6 0 220.8-99.2 220.8-220.8 0-3.2 0-9.6 0-12.8h166.4c0 70.4-19.2 137.6-54.4 198.4-35.2 57.6-83.2 105.6-144 140.8s-124.8 54.4-198.4 54.4v-160c3.2-3.2 6.4 0 9.6 0z" />
<glyph unicode="&#xe944;" glyph-name="chart-pie2" d="M460.8 348.8l281.6-281.6c-35.2-38.4-80-67.2-128-86.4s-99.2-32-153.6-32c-70.4 0-137.6 19.2-198.4 54.4s-108.8 83.2-144 144c-35.2 60.8-54.4 124.8-54.4 198.4s19.2 137.6 54.4 198.4 83.2 108.8 144 144 124.8 54.4 198.4 54.4c0 0 0-393.6 0-393.6zM556.8 345.6h396.8c0-54.4-9.6-105.6-32-153.6-19.2-48-48-89.6-86.4-128l-278.4 281.6zM921.6 412.8h-393.6v393.6c70.4 0 137.6-19.2 198.4-54.4s105.6-80 140.8-140.8c35.2-60.8 54.4-128 54.4-198.4z" />
<glyph unicode="&#xe945;" glyph-name="check" d="M953.6 480c0-16-6.4-28.8-16-38.4l-492.8-492.8c-9.6-9.6-22.4-16-38.4-16s-28.8 6.4-38.4 16l-284.8 284.8c-9.6 9.6-16 22.4-16 38.4s6.4 28.8 16 38.4l44.8 41.6c9.6 9.6 22.4 16 38.4 16s28.8-6.4 38.4-16l204.8-208 406.4 412.8c9.6 9.6 22.4 16 38.4 16s28.8-6.4 38.4-16l41.6-38.4c12.8-9.6 19.2-25.6 19.2-38.4z" />
<glyph unicode="&#xe946;" glyph-name="clipboard-add" d="M873.6 713.6h-249.6c0 60.8-51.2 112-112 112s-112-51.2-112-112h-252.8c-16 0-28.8-12.8-28.8-28.8v-726.4c0-16 12.8-28.8 28.8-28.8h726.4c16 0 28.8 12.8 28.8 28.8v726.4c0 16-12.8 28.8-28.8 28.8zM508.8 771.2c32 0 54.4-25.6 54.4-54.4s-25.6-54.4-54.4-54.4-54.4 25.6-54.4 54.4 25.6 54.4 54.4 54.4zM844.8-9.6h-668.8v668.8h112v-83.2c0-16 12.8-28.8 28.8-28.8h390.4c16 0 28.8 12.8 28.8 28.8v83.2h112v-668.8zM496 435.2h35.2c6.4 0 9.6-3.2 12.8-6.4s6.4-6.4 6.4-12.8v-121.6h121.6c6.4 0 9.6-3.2 12.8-6.4s6.4-6.4 6.4-12.8v-35.2c0-6.4-3.2-9.6-6.4-12.8s-6.4-6.4-12.8-6.4h-121.6v-121.6c0-6.4-3.2-9.6-6.4-12.8s-6.4-6.4-12.8-6.4h-35.2c-6.4 0-9.6 3.2-12.8 6.4s-6.4 6.4-6.4 12.8v121.6h-121.6c-6.4 0-9.6 3.2-12.8 6.4s-6.4 6.4-6.4 12.8v35.2c0 6.4 3.2 9.6 6.4 12.8s6.4 6.4 12.8 6.4h121.6v121.6c0 6.4 3.2 9.6 6.4 12.8 3.2 6.4 6.4 6.4 12.8 6.4z" />
<glyph unicode="&#xe947;" glyph-name="clipboard-check" d="M873.6 713.6h-249.6c0 60.8-51.2 112-112 112s-112-51.2-112-112h-252.8c-16 0-28.8-12.8-28.8-28.8v-726.4c0-16 12.8-28.8 28.8-28.8h726.4c16 0 28.8 12.8 28.8 28.8v726.4c0 16-12.8 28.8-28.8 28.8zM508.8 771.2c32 0 54.4-25.6 54.4-54.4s-25.6-54.4-54.4-54.4-54.4 25.6-54.4 54.4 25.6 54.4 54.4 54.4zM844.8-9.6h-668.8v668.8h112v-83.2c0-16 12.8-28.8 28.8-28.8h390.4c16 0 28.8 12.8 28.8 28.8v83.2h112v-668.8zM755.2 374.4l-281.6-281.6c-3.2-3.2-6.4-6.4-12.8-6.4-3.2 0-9.6 3.2-12.8 6.4l-160 160c-3.2 3.2-6.4 6.4-6.4 12.8 0 3.2 3.2 9.6 6.4 12.8l25.6 25.6c3.2 3.2 6.4 6.4 12.8 6.4s9.6-3.2 12.8-6.4l121.6-121.6 243.2 243.2c3.2 3.2 6.4 6.4 12.8 6.4 3.2 0 9.6-3.2 12.8-6.4l25.6-25.6c3.2-3.2 6.4-6.4 6.4-12.8 0-3.2-3.2-9.6-6.4-12.8z" />
<glyph unicode="&#xe948;" glyph-name="clipboard-delete" d="M873.6 713.6h-249.6c0 60.8-51.2 112-112 112s-112-51.2-112-112h-252.8c-16 0-28.8-12.8-28.8-28.8v-726.4c0-16 12.8-28.8 28.8-28.8h726.4c16 0 28.8 12.8 28.8 28.8v726.4c0 16-12.8 28.8-28.8 28.8zM508.8 771.2c32 0 54.4-25.6 54.4-54.4s-25.6-54.4-54.4-54.4-54.4 25.6-54.4 54.4 25.6 54.4 54.4 54.4zM844.8-9.6h-668.8v668.8h112v-83.2c0-16 12.8-28.8 28.8-28.8h390.4c16 0 28.8 12.8 28.8 28.8v83.2h112v-668.8zM624 396.8l25.6-25.6c3.2-3.2 6.4-6.4 6.4-12.8s-3.2-9.6-6.4-12.8l-86.4-86.4 86.4-86.4c3.2-3.2 6.4-6.4 6.4-12.8s-3.2-9.6-6.4-12.8l-25.6-25.6c-3.2-3.2-6.4-6.4-12.8-6.4s-9.6 3.2-12.8 6.4l-86.4 89.6-86.4-86.4c-3.2-3.2-6.4-6.4-12.8-6.4-3.2 0-9.6 3.2-12.8 6.4l-25.6 25.6c-3.2 3.2-6.4 6.4-6.4 12.8 0 3.2 3.2 9.6 6.4 12.8l86.4 86.4-86.4 86.4c-3.2 3.2-6.4 6.4-6.4 12.8 0 3.2 3.2 9.6 6.4 12.8l25.6 25.6c3.2 3.2 6.4 6.4 12.8 6.4s9.6-3.2 12.8-6.4l86.4-86.4 86.4 86.4c3.2 3.2 6.4 6.4 12.8 6.4s9.6-6.4 12.8-9.6z" />
<glyph unicode="&#xe949;" glyph-name="clipboard-empty" d="M873.6 713.6h-249.6c0 60.8-51.2 112-112 112s-112-51.2-112-112h-252.8c-16 0-28.8-12.8-28.8-28.8v-726.4c0-16 12.8-28.8 28.8-28.8h726.4c16 0 28.8 12.8 28.8 28.8v726.4c0 16-12.8 28.8-28.8 28.8zM508.8 771.2c32 0 54.4-25.6 54.4-54.4s-25.6-54.4-54.4-54.4-54.4 25.6-54.4 54.4 25.6 54.4 54.4 54.4zM844.8-9.6h-668.8v668.8h112v-83.2c0-16 12.8-28.8 28.8-28.8h390.4c16 0 28.8 12.8 28.8 28.8v83.2h112v-668.8z" />
<glyph unicode="&#xe94a;" glyph-name="clipboard" d="M873.6 713.6h-249.6c0 60.8-51.2 112-112 112s-112-51.2-112-112h-252.8c-16 0-28.8-12.8-28.8-28.8v-726.4c0-16 12.8-28.8 28.8-28.8h726.4c16 0 28.8 12.8 28.8 28.8v726.4c0 16-12.8 28.8-28.8 28.8zM508.8 771.2c32 0 54.4-25.6 54.4-54.4s-25.6-54.4-54.4-54.4-54.4 25.6-54.4 54.4 25.6 54.4 54.4 54.4zM844.8-9.6h-668.8v668.8h112v-83.2c0-16 12.8-28.8 28.8-28.8h390.4c16 0 28.8 12.8 28.8 28.8v83.2h112v-668.8zM745.6 355.2h-470.4c-19.2 0-32 12.8-32 32v25.6c0 19.2 12.8 32 32 32h473.6c19.2 0 32-12.8 32-32v-25.6c-3.2-19.2-16-32-35.2-32zM748.8 204.8h-473.6c-19.2 0-32 12.8-32 32v25.6c0 19.2 12.8 32 32 32h473.6c19.2 0 32-12.8 32-32v-25.6c0-19.2-12.8-32-32-32zM745.6 51.2h-470.4c-19.2 0-32 12.8-32 32v25.6c0 19.2 12.8 32 32 32h473.6c19.2 0 32-12.8 32-32v-25.6c-3.2-16-16-32-35.2-32z" />
<glyph unicode="&#xe94b;" glyph-name="column" d="M153.6 9.6h323.2v668.8h-342.4v-649.6c0-6.4 3.2-9.6 6.4-12.8s6.4-6.4 12.8-6.4v0zM886.4 28.8v649.6h-342.4v-668.8h323.2c3.2 0 9.6 3.2 12.8 6.4s6.4 6.4 6.4 12.8v0zM953.6 732.8v-704c0-25.6-9.6-48-25.6-64-16-19.2-35.2-28.8-60.8-28.8h-713.6c-22.4 0-44.8 9.6-60.8 28.8s-25.6 41.6-25.6 64v704c0 25.6 9.6 48 25.6 64s35.2 28.8 60.8 28.8h716.8c22.4 0 44.8-9.6 60.8-28.8 12.8-16 22.4-38.4 22.4-64z" />
<glyph unicode="&#xe94c;" glyph-name="degree" d="M748.8 361.6l6.4-121.6c0-19.2-9.6-64-32-80s-51.2-25.6-89.6-35.2-80-12.8-124.8-12.8c-44.8 0-86.4 3.2-124.8 12.8s-67.2 22.4-89.6 35.2c-22.4 16-32 60.8-32 80l6.4 121.6 220.8-70.4c6.4-3.2 12.8-3.2 19.2-3.2s12.8 0 19.2 3.2l220.8 70.4zM953.6 486.4c0-6.4-3.2-9.6-9.6-12.8l-432-134.4c0 0-3.2 0-3.2 0s-3.2 0-3.2 0l-249.6 80c-9.6-9.6-19.2-22.4-28.8-41.6-6.4-19.2-12.8-41.6-12.8-67.2 16-9.6 25.6-22.4 25.6-41.6s-6.4-32-22.4-41.6l22.4-166.4c0-3.2 0-6.4-3.2-9.6s-6.4-3.2-9.6-3.2h-73.6c-3.2 0-6.4 0-9.6 3.2s-3.2 6.4-3.2 9.6l22.4 163.2c-16 9.6-22.4 22.4-22.4 41.6s9.6 32 25.6 41.6c3.2 54.4 16 96 38.4 128l-128 41.6c-6.4 3.2-9.6 6.4-9.6 12.8s3.2 9.6 9.6 12.8l432 134.4c0 0 3.2 0 3.2 0s3.2 0 3.2 0l432-134.4c3.2-6.4 6.4-9.6 6.4-16v0z" />
<glyph unicode="&#xe94d;" glyph-name="delete" d="M739.2 732.8l-233.6-233.6-230.4 230.4c-12.8 12.8-32 12.8-44.8 0l-70.4-70.4c-12.8-12.8-12.8-32 0-44.8l230.4-230.4-233.6-233.6c-12.8-12.8-12.8-32 0-44.8l70.4-70.4c12.8-12.8 32-12.8 44.8 0l233.6 233.6 240-240c12.8-12.8 32-12.8 44.8 0l70.4 70.4c12.8 12.8 12.8 32 0 44.8l-236.8 240 233.6 233.6c12.8 12.8 12.8 32 0 44.8l-70.4 70.4c-16 9.6-35.2 9.6-48 0z" />
<glyph unicode="&#xe94e;" glyph-name="discussion" d="M416 665.6c-51.2 0-96-9.6-140.8-25.6s-80-41.6-105.6-70.4c-25.6-28.8-38.4-60.8-38.4-96 0-25.6 9.6-54.4 25.6-76.8 16-25.6 41.6-48 73.6-64l48-28.8-16-41.6c12.8 6.4 22.4 12.8 32 19.2l22.4 16 25.6-6.4c25.6-3.2 51.2-6.4 76.8-6.4 51.2 0 96 9.6 140.8 25.6s80 41.6 105.6 70.4c25.6 28.8 38.4 60.8 38.4 96s-12.8 64-38.4 96-64 48-108.8 67.2-89.6 25.6-140.8 25.6v0zM416 729.6c64 0 121.6-12.8 176-35.2s96-54.4 128-92.8c32-38.4 48-80 48-128s-16-89.6-48-128c-32-38.4-73.6-70.4-128-92.8s-112-35.2-176-35.2c-28.8 0-57.6 3.2-86.4 6.4-41.6-28.8-86.4-51.2-137.6-64-12.8 3.2-25.6 0-44.8 0v0c-3.2 0-6.4 0-9.6 3.2s-6.4 6.4-6.4 9.6c0 0 0 3.2 0 3.2s0 3.2 0 3.2 0 3.2 0 3.2v3.2c0 0 0 0 3.2 3.2 0 3.2 3.2 3.2 3.2 3.2s0 0 3.2 3.2c0 3.2 3.2 3.2 3.2 3.2 3.2 3.2 6.4 6.4 12.8 12.8s9.6 9.6 12.8 16c3.2 3.2 6.4 9.6 9.6 12.8 6.4 6.4 9.6 12.8 12.8 19.2s6.4 12.8 9.6 22.4c-41.6 22.4-73.6 54.4-96 86.4s-35.2 70.4-35.2 112c0 44.8 16 89.6 48 128s73.6 70.4 128 92.8 105.6 28.8 169.6 28.8v0zM822.4 150.4c3.2-6.4 6.4-16 9.6-22.4s6.4-12.8 12.8-19.2 9.6-9.6 9.6-12.8 6.4-9.6 12.8-16c6.4-6.4 9.6-9.6 12.8-12.8 0 0 0 0 3.2-3.2 0 0 3.2-3.2 3.2-3.2s0 0 3.2-3.2c0 0 0-3.2 3.2-3.2v-3.2c0 0 0 0 0-3.2s0-3.2 0-3.2 0 0 0-3.2-3.2-9.6-6.4-9.6c-6.4 0-9.6 0-12.8 0-16 3.2-32 6.4-41.6 6.4-51.2 12.8-96 35.2-137.6 64-28.8-6.4-57.6-6.4-86.4-6.4-89.6 0-166.4 22.4-233.6 64 19.2 0 35.2-3.2 44.8-3.2 54.4 0 105.6 6.4 153.6 22.4s92.8 35.2 131.2 64c41.6 28.8 73.6 64 96 105.6s32 80 32 124.8c0 25.6-3.2 51.2-12.8 73.6 41.6-22.4 76.8-51.2 102.4-89.6 25.6-35.2 38.4-73.6 38.4-115.2 0-38.4-12.8-76.8-35.2-112-28.8-28.8-60.8-57.6-102.4-80v0z" />
<glyph unicode="&#xe94f;" glyph-name="discussion2" d="M764.8 473.6c0-44.8-16-89.6-48-128s-73.6-70.4-128-92.8-108.8-32-172.8-32c-28.8 0-57.6 3.2-86.4 6.4-41.6-28.8-86.4-51.2-137.6-64-12.8-3.2-25.6-6.4-41.6-6.4v0c-3.2 0-6.4 0-9.6 3.2s-6.4 6.4-6.4 9.6c0 0 0 3.2 0 3.2s0 3.2 0 3.2c0 0 0 3.2 0 3.2v3.2c0 0 0 0 3.2 3.2 0 3.2 3.2 3.2 3.2 3.2s0 0 3.2 3.2c0 3.2 3.2 3.2 3.2 3.2 3.2 3.2 6.4 6.4 12.8 12.8s9.6 9.6 12.8 16c3.2 3.2 6.4 9.6 9.6 12.8 6.4 6.4 9.6 12.8 12.8 19.2s6.4 12.8 9.6 22.4c-41.6 22.4-73.6 54.4-96 86.4-22.4 35.2-35.2 70.4-35.2 112 0 44.8 16 89.6 48 128s73.6 70.4 128 92.8 102.4 28.8 166.4 28.8c64 0 121.6-12.8 176-35.2s96-54.4 128-92.8 44.8-76.8 44.8-124.8v0zM953.6 348.8c0-38.4-12.8-76.8-35.2-112s-54.4-64-96-86.4c3.2-6.4 6.4-16 9.6-22.4s6.4-12.8 12.8-19.2c3.2-6.4 9.6-9.6 9.6-12.8 3.2-3.2 6.4-9.6 12.8-16s9.6-9.6 12.8-12.8c0 0 0 0 3.2-3.2 0 0 3.2-3.2 3.2-3.2s0 0 3.2-3.2c0 0 0-3.2 3.2-3.2v-3.2c0 0 0 0 0-3.2s0-3.2 0-3.2 0 0 0-3.2-3.2-9.6-6.4-9.6c-6.4 0-9.6 0-12.8 0-16 3.2-32 6.4-41.6 6.4-51.2 12.8-96 35.2-137.6 64-28.8-6.4-57.6-6.4-86.4-6.4-89.6 0-166.4 22.4-233.6 64 19.2 0 35.2-3.2 44.8-3.2 54.4 0 105.6 6.4 153.6 22.4s92.8 35.2 131.2 64c41.6 28.8 73.6 64 96 105.6s32 80 32 124.8c0 25.6-3.2 51.2-12.8 73.6 41.6-22.4 76.8-51.2 102.4-89.6s32-70.4 32-108.8v0z" />
<glyph unicode="&#xe950;" glyph-name="dpwnload" d="M460.8 790.4v-192h-89.6c-28.8 0-41.6-35.2-22.4-54.4l144-147.2c12.8-12.8 32-12.8 44.8 0l144 147.2c19.2 19.2 6.4 54.4-22.4 54.4h-89.6v192c0 19.2-12.8 32-32 32h-48c-19.2 0-32-12.8-28.8-32zM624 403.2v-19.2c0-12.8 9.6-25.6 19.2-28.8l153.6-57.6c28.8-9.6 28.8-48 0-60.8l-284.8-108.8-284.8 108.8c-28.8 9.6-28.8 48 0 60.8l153.6 57.6c12.8 3.2 19.2 16 19.2 28.8v19.2c0 22.4-22.4 38.4-44.8 28.8l-268.8-102.4c-12.8-3.2-19.2-16-19.2-28.8v-179.2c0-12.8 9.6-25.6 19.2-28.8l409.6-156.8c6.4-3.2 16-3.2 22.4 0l409.6 156.8c12.8 3.2 19.2 16 19.2 28.8v179.2c0 12.8-9.6 25.6-19.2 28.8l-268.8 102.4c-12.8 9.6-35.2-6.4-35.2-28.8z" />
<glyph unicode="&#xe951;" glyph-name="dropbox" d="M704 809.6l-195.2-166.4 249.6-166.4 195.2 166.4-249.6 166.4zM508.8 643.2l-192 166.4-249.6-166.4 195.2-166.4 246.4 166.4zM761.6 476.8l195.2-166.4-252.8-137.6-195.2 166.4 252.8 137.6zM508.8 339.2l-249.6 137.6-195.2-166.4 249.6-137.6 195.2 166.4zM697.6 105.6l-188.8 160-188.8-160-118.4 64v-80l307.2-137.6 307.2 137.6v80l-118.4-64z" />
<glyph unicode="&#xe952;" glyph-name="edit" d="M889.6 579.2c-70.4 64-128 118.4-214.4 198.4 54.4 60.8 147.2 64 208 6.4s60.8-144 6.4-204.8zM649.6 748.8l-518.4-560-38.4-256 252.8 57.6 518.4 556.8c-3.2 3.2-214.4 201.6-214.4 201.6zM268.8 70.4l-54.4 51.2 473.6 512 54.4-51.2-473.6-512z" />
<glyph unicode="&#xe953;" glyph-name="expand" d="M249.6 121.6c-6.4 9.6-12.8 22.4-12.8 38.4v307.2c0 28.8 22.4 51.2 51.2 51.2s51.2-22.4 51.2-51.2v-256h256c28.8 0 51.2-22.4 51.2-51.2s-22.4-51.2-51.2-51.2h-307.2c-12.8-3.2-25.6 6.4-38.4 12.8 0 0 0 0 0 0zM771.2 640c6.4-9.6 12.8-22.4 12.8-38.4v-307.2c0-28.8-22.4-51.2-51.2-51.2s-51.2 22.4-51.2 51.2v256h-256c-28.8 0-51.2 22.4-51.2 51.2s22.4 51.2 51.2 51.2h307.2c12.8 0 25.6-6.4 38.4-12.8 0 0 0 0 0 0z" />
<glyph unicode="&#xe954;" glyph-name="font" d="M332.8 537.6l-60.8-163.2c35.2 0 73.6 0 108.8 0 6.4 0 12.8 0 19.2 0-19.2 54.4-41.6 112-67.2 163.2v0zM67.2 137.6v28.8c35.2 9.6 70.4 3.2 86.4 41.6l86.4 224 102.4 262.4h48c0-3.2 3.2-6.4 3.2-6.4l73.6-176c28.8-64 51.2-131.2 80-195.2 16-38.4 28.8-76.8 48-115.2 3.2-6.4 6.4-16 12.8-19.2 12.8-9.6 44.8-12.8 64-19.2 0-6.4 3.2-12.8 3.2-19.2 0-3.2 0-6.4 0-9.6-44.8 0-92.8 6.4-137.6 6.4-48 0-96-3.2-144-6.4 0 9.6 0 19.2 0 28.8l48 9.6c9.6 3.2 28.8 3.2 28.8 19.2 0 12.8-48 121.6-54.4 137.6h-163.2c-9.6-22.4-44.8-115.2-44.8-131.2 0-28.8 54.4-28.8 73.6-32 0-6.4 0-12.8 0-22.4 0-3.2 0-6.4 0-9.6-41.6 0-86.4 6.4-128 6.4-6.4 0-12.8-3.2-16-3.2-25.6 0-48 0-70.4 0v0z" />
<glyph unicode="&#xe955;" glyph-name="indicator" d="M576 96h316.8v64h-316.8v-64zM384 345.6h505.6v64h-505.6v-64zM700.8 598.4h188.8v64h-188.8v-64zM953.6 188.8v-124.8c0-16-12.8-32-32-32h-819.2c-16 0-32 12.8-32 32v124.8c0 16 12.8 32 32 32h822.4c12.8 0 28.8-12.8 28.8-32zM953.6 441.6v-124.8c0-16-12.8-32-32-32h-819.2c-16 0-32 12.8-32 32v124.8c0 16 12.8 32 32 32h822.4c12.8 0 28.8-16 28.8-32zM953.6 694.4v-124.8c0-16-12.8-32-32-32h-819.2c-16 0-32 12.8-32 32v124.8c0 16 12.8 32 32 32h822.4c12.8 0 28.8-16 28.8-32z" />
<glyph unicode="&#xe956;" glyph-name="item-list" d="M256 128c0-25.6-9.6-48-28.8-67.2s-38.4-28.8-64-28.8c-25.6 0-48 9.6-67.2 28.8s-28.8 38.4-28.8 67.2c0 25.6 9.6 48 28.8 67.2s41.6 28.8 67.2 28.8 48-9.6 67.2-28.8c16-19.2 25.6-41.6 25.6-67.2zM256 377.6c0-25.6-9.6-48-28.8-67.2s-41.6-28.8-67.2-28.8-48 12.8-64 32-28.8 38.4-28.8 64c0 25.6 9.6 48 28.8 67.2s41.6 28.8 67.2 28.8c25.6 0 48-9.6 67.2-28.8 16-16 25.6-38.4 25.6-67.2zM256 630.4c0-25.6-9.6-48-28.8-67.2s-41.6-28.8-67.2-28.8c-25.6 0-48 9.6-67.2 28.8s-25.6 41.6-25.6 67.2 9.6 51.2 28.8 67.2 41.6 28.8 67.2 28.8 48-9.6 67.2-28.8 25.6-38.4 25.6-67.2zM953.6 160v-60.8c0-12.8-3.2-25.6-12.8-32-9.6-9.6-19.2-12.8-32-12.8h-540.8c-12.8 0-25.6 3.2-32 12.8-9.6 9.6-12.8 19.2-12.8 32v60.8c0 12.8 3.2 25.6 12.8 32 9.6 9.6 19.2 12.8 32 12.8h537.6c12.8 0 25.6-3.2 32-12.8 9.6-9.6 16-19.2 16-32zM953.6 409.6v-60.8c0-12.8-3.2-25.6-12.8-32-9.6-9.6-19.2-12.8-32-12.8h-540.8c-12.8 0-25.6 3.2-32 12.8-9.6 9.6-12.8 19.2-12.8 32v60.8c0 12.8 3.2 25.6 12.8 32 9.6 9.6 19.2 12.8 32 12.8h537.6c12.8 0 25.6-3.2 32-12.8 9.6-9.6 16-19.2 16-32zM953.6 659.2v-60.8c0-12.8-3.2-25.6-12.8-32s-19.2-12.8-32-12.8h-540.8c-12.8 0-25.6 3.2-32 12.8-9.6 9.6-12.8 19.2-12.8 32v60.8c0 12.8 3.2 25.6 12.8 32 9.6 9.6 19.2 12.8 32 12.8h537.6c12.8 0 25.6-3.2 32-12.8s16-19.2 16-32z" />
<glyph unicode="&#xe957;" glyph-name="jalon" d="M304 780.8c0 0 0 0 0 9.6 0 3.2 0 6.4-6.4 6.4-16 0-51.2 0-51.2 0-19.2 0-32-12.8-32-32v-832h89.6v419.2zM304 665.6l492.8-134.4c25.6-9.6 25.6-44.8 3.2-57.6l-496-214.4v406.4zM326.4 758.4c0-37.114-30.086-67.2-67.2-67.2s-67.2 30.086-67.2 67.2c0 37.114 30.086 67.2 67.2 67.2s67.2-30.086 67.2-67.2z" />
<glyph unicode="&#xe958;" glyph-name="key" d="M924.8 140.8l-371.2 313.6c16 32 25.6 70.4 25.6 108.8 0 140.8-115.2 256-256 256s-256-115.2-256-256 115.2-256 256-256c48 0 89.6 12.8 128 35.2l105.6-89.6-32-38.4c-28.8-32-22.4-80 9.6-108.8 16-12.8 32-19.2 51.2-19.2 22.4 0 44.8 9.6 57.6 28.8l32 38.4 32-25.6-48-64c-28.8-32-22.4-80 9.6-108.8 16-12.8 32-19.2 51.2-19.2 22.4 0 44.8 9.6 57.6 28.8l51.2 57.6c16-12.8 32-19.2 51.2-19.2 22.4 0 44.8 9.6 57.6 28.8 25.6 35.2 22.4 83.2-12.8 108.8v0zM262.4 540.8c-44.8 0-80 35.2-80 80s35.2 80 80 80c44.8 0 80-35.2 80-80s-35.2-80-80-80z" />
<glyph unicode="&#xe959;" glyph-name="left" d="M275.2 332.8l374.4-374.4c12.8-12.8 35.2-22.4 51.2-22.4s35.2 9.6 48 22.4c28.8 28.8 28.8 67.2 0 96l-326.4 326.4 323.2 323.2c28.8 28.8 28.8 67.2 0 96s-70.4 28.8-99.2 0l-371.2-374.4c-12.8-12.8-19.2-32-19.2-48 0-19.2 6.4-32 19.2-44.8z" />
<glyph unicode="&#xe95a;" glyph-name="link" d="M390.4 118.4l-44.8-44.8c-38.4-38.4-102.4-38.4-140.8 0-19.2 19.2-28.8 41.6-28.8 70.4s9.6 51.2 28.8 70.4l166.4 163.2c35.2 35.2 99.2 83.2 144 38.4 22.4-22.4 57.6-22.4 76.8 0 22.4 22.4 22.4 57.6 0 76.8-80 80-198.4 64-300.8-38.4l-163.2-163.2c-38.4-38.4-60.8-92.8-60.8-147.2s22.4-108.8 60.8-147.2c41.6-41.6 96-60.8 147.2-60.8s105.6 19.2 147.2 60.8l44.8 44.8c22.4 22.4 22.4 57.6 0 76.8-19.2 22.4-54.4 22.4-76.8 0v0zM892.8 755.2c-86.4 86.4-204.8 89.6-284.8 9.6l-54.4-54.4c-22.4-22.4-22.4-57.6 0-76.8 22.4-22.4 57.6-22.4 76.8 0l54.4 54.4c41.6 41.6 96 22.4 131.2-9.6 16-19.2 28.8-44.8 28.8-70.4s-9.6-51.2-28.8-70.4l-176-172.8c-80-80-118.4-41.6-134.4-25.6-22.4 22.4-57.6 22.4-76.8 0-22.4-22.4-22.4-57.6 0-76.8 38.4-35.2 80-54.4 124.8-54.4 54.4 0 112 28.8 166.4 80l176 176c38.4 38.4 60.8 92.8 60.8 147.2s-25.6 105.6-64 144z" />
<glyph unicode="&#xe95b;" glyph-name="linkedin" d="M384 502.4h176v-89.6h3.2c25.6 44.8 83.2 89.6 172.8 89.6 185.6 0 217.6-115.2 217.6-265.6v-304h-182.4v268.8c0 64 0 147.2-96 147.2s-108.8-70.4-108.8-144v-275.2h-182.4v572.8zM67.2 502.4h188.8v-569.6h-188.8v569.6zM256 662.4c0-51.2-41.6-96-96-96s-96 41.6-96 96 41.6 96 96 96 96-44.8 96-96z" />
<glyph unicode="&#xe95c;" glyph-name="linkedin2" d="M905.6 777.6c-32 32-73.6 48-118.4 48h-553.6c-48 0-86.4-16-118.4-48s-48-73.6-48-118.4v-560c0-44.8 16-86.4 48-118.4s73.6-48 118.4-48h553.6c48 0 86.4 16 118.4 48s48 73.6 48 118.4v560c0 44.8-16 86.4-48 118.4zM304 44.8h-153.6v464h153.6v-464zM227.2 560c-41.6 0-76.8 35.2-76.8 76.8s35.2 76.8 76.8 76.8 76.8-35.2 76.8-76.8c0-41.6-35.2-76.8-76.8-76.8zM870.4 44.8h-147.2v220.8c0 51.2 0 118.4-76.8 118.4s-89.6-57.6-89.6-115.2v-224h-147.2v464h140.8v-73.6h3.2c19.2 35.2 67.2 73.6 140.8 73.6 150.4 0 179.2-92.8 179.2-214.4v-249.6z" />
<glyph unicode="&#xe95d;" glyph-name="list-details" d="M323.2 160v-60.8c0-12.8-3.2-25.6-12.8-32-9.6-9.6-19.2-12.8-32-12.8h-163.2c-12.8 0-25.6 3.2-32 12.8-9.6 9.6-12.8 19.2-12.8 32v60.8c0 12.8 3.2 25.6 12.8 32 9.6 9.6 19.2 12.8 32 12.8h156.8c12.8 0 25.6-3.2 32-12.8 12.8-9.6 19.2-19.2 19.2-32zM323.2 409.6v-60.8c0-12.8-3.2-25.6-12.8-32-9.6-9.6-19.2-12.8-32-12.8h-163.2c-12.8 0-25.6 3.2-32 12.8-9.6 9.6-12.8 19.2-12.8 32v60.8c0 12.8 3.2 25.6 12.8 32 9.6 9.6 19.2 12.8 32 12.8h156.8c12.8 0 25.6-3.2 32-12.8 12.8-9.6 19.2-19.2 19.2-32zM953.6 160v-60.8c0-12.8-3.2-25.6-12.8-32-9.6-9.6-19.2-12.8-32-12.8h-476.8c-12.8 0-25.6 3.2-32 12.8-9.6 9.6-12.8 19.2-12.8 32v60.8c0 12.8 3.2 25.6 12.8 32 9.6 9.6 19.2 12.8 32 12.8h473.6c12.8 0 25.6-3.2 32-12.8 9.6-9.6 16-19.2 16-32zM323.2 659.2v-60.8c0-12.8-3.2-25.6-12.8-32-9.6-9.6-19.2-12.8-32-12.8h-163.2c-12.8 0-25.6 3.2-32 12.8s-12.8 19.2-12.8 32v60.8c0 12.8 3.2 25.6 12.8 32s19.2 12.8 32 12.8h156.8c12.8 0 25.6-3.2 32-12.8 12.8-9.6 19.2-19.2 19.2-32zM953.6 409.6v-60.8c0-12.8-3.2-25.6-12.8-32-9.6-9.6-19.2-12.8-32-12.8h-476.8c-12.8 0-25.6 3.2-32 12.8-9.6 9.6-12.8 19.2-12.8 32v60.8c0 12.8 3.2 25.6 12.8 32 9.6 9.6 19.2 12.8 32 12.8h473.6c12.8 0 25.6-3.2 32-12.8 9.6-9.6 16-19.2 16-32zM953.6 659.2v-60.8c0-12.8-3.2-25.6-12.8-32s-19.2-12.8-32-12.8h-476.8c-12.8 0-25.6 3.2-32 12.8-9.6 9.6-12.8 19.2-12.8 32v60.8c0 12.8 3.2 25.6 12.8 32 9.6 9.6 19.2 12.8 32 12.8h473.6c12.8 0 25.6-3.2 32-12.8s16-19.2 16-32z" />
<glyph unicode="&#xe95e;" glyph-name="list-grid" d="M323.2 153.6v-64c0-12.8-3.2-25.6-12.8-35.2s-19.2-12.8-32-12.8h-160c-12.8 0-25.6 3.2-32 12.8s-12.8 19.2-12.8 35.2v64c0 12.8 3.2 25.6 12.8 35.2s19.2 12.8 32 12.8h156.8c12.8 0 25.6-3.2 32-12.8 9.6-9.6 16-22.4 16-35.2zM323.2 409.6v-64c0-12.8-3.2-25.6-12.8-35.2s-19.2-12.8-32-12.8h-160c-12.8 0-25.6 3.2-32 12.8s-12.8 19.2-12.8 35.2v64c0 12.8 3.2 25.6 12.8 35.2s19.2 12.8 32 12.8h156.8c12.8 0 25.6-3.2 32-12.8 9.6-9.6 16-19.2 16-35.2zM636.8 153.6v-64c0-12.8-3.2-25.6-12.8-35.2s-19.2-12.8-32-12.8h-156.8c-12.8 0-25.6 3.2-32 12.8-9.6 9.6-12.8 19.2-12.8 35.2v64c0 12.8 3.2 25.6 12.8 35.2s19.2 12.8 32 12.8h156.8c12.8 0 25.6-3.2 32-12.8s12.8-22.4 12.8-35.2zM323.2 668.8v-64c0-12.8-3.2-25.6-12.8-35.2s-19.2-12.8-32-12.8h-160c-12.8 0-25.6 3.2-32 12.8s-16 22.4-16 35.2v64c0 12.8 3.2 25.6 12.8 35.2s19.2 12.8 32 12.8h156.8c12.8 0 25.6-3.2 32-12.8 12.8-9.6 19.2-22.4 19.2-35.2zM636.8 409.6v-64c0-12.8-3.2-25.6-12.8-35.2s-19.2-12.8-32-12.8h-156.8c-12.8 0-25.6 3.2-32 12.8-9.6 9.6-12.8 19.2-12.8 35.2v64c0 12.8 3.2 25.6 12.8 35.2s19.2 12.8 32 12.8h156.8c12.8 0 25.6-3.2 32-12.8 9.6-9.6 12.8-19.2 12.8-35.2zM953.6 153.6v-64c0-12.8-3.2-25.6-12.8-35.2s-19.2-12.8-32-12.8h-156.8c-12.8 0-25.6 3.2-32 12.8-9.6 9.6-12.8 19.2-12.8 35.2v64c0 12.8 3.2 25.6 12.8 35.2s19.2 12.8 32 12.8h156.8c12.8 0 25.6-3.2 32-12.8s12.8-22.4 12.8-35.2zM636.8 668.8v-64c0-12.8-3.2-25.6-12.8-35.2s-19.2-12.8-32-12.8h-156.8c-12.8 0-25.6 3.2-32 12.8-9.6 9.6-12.8 19.2-12.8 35.2v64c0 12.8 3.2 25.6 12.8 35.2s19.2 12.8 32 12.8h156.8c12.8 0 25.6-3.2 32-12.8s12.8-22.4 12.8-35.2zM953.6 409.6v-64c0-12.8-3.2-25.6-12.8-35.2s-19.2-12.8-32-12.8h-156.8c-12.8 0-25.6 3.2-32 12.8-9.6 9.6-12.8 19.2-12.8 35.2v64c0 12.8 3.2 25.6 12.8 35.2s19.2 12.8 32 12.8h156.8c12.8 0 25.6-3.2 32-12.8 9.6-9.6 12.8-19.2 12.8-35.2zM953.6 668.8v-64c0-12.8-3.2-25.6-12.8-35.2s-19.2-12.8-32-12.8h-156.8c-12.8 0-25.6 3.2-32 12.8-9.6 9.6-12.8 19.2-12.8 35.2v64c0 12.8 3.2 25.6 12.8 35.2s19.2 12.8 32 12.8h156.8c12.8 0 25.6-3.2 32-12.8s12.8-22.4 12.8-35.2z" />
<glyph unicode="&#xe95f;" glyph-name="loader" d="M393.6 707.2c0 67.2 54.4 118.4 118.4 118.4s118.4-54.4 118.4-118.4-54.4-118.4-118.4-118.4-118.4 51.2-118.4 118.4zM646.4 601.6c0 67.2 54.4 118.4 118.4 118.4s118.4-54.4 118.4-118.4-51.2-118.4-115.2-118.4-121.6 54.4-121.6 118.4zM812.8 348.8c0 32 25.6 60.8 60.8 60.8s60.8-25.6 60.8-60.8c0-32-25.6-60.8-60.8-60.8s-60.8 28.8-60.8 60.8zM707.2 96c0 32 25.6 60.8 60.8 60.8s60.8-25.6 60.8-60.8c0-32-25.6-60.8-60.8-60.8s-60.8 28.8-60.8 60.8zM454.4-6.4v0c0 32 25.6 60.8 60.8 60.8s60.8-25.6 60.8-60.8v0c0-32-25.6-60.8-60.8-60.8s-60.8 25.6-60.8 60.8zM201.6 96v0c0 32 25.6 60.8 60.8 60.8s57.6-25.6 57.6-60.8v0c0-32-25.6-60.8-60.8-60.8s-57.6 28.8-57.6 60.8zM172.8 601.6v0c0 48 38.4 89.6 89.6 89.6s89.6-38.4 89.6-89.6v0c0-48-38.4-89.6-89.6-89.6s-89.6 41.6-89.6 89.6zM89.6 348.8c0 38.4 28.8 67.2 67.2 67.2s67.2-28.8 67.2-67.2-28.8-67.2-67.2-67.2-67.2 32-67.2 67.2z" />
<glyph unicode="&#xe960;" glyph-name="location" d="M777.6 368v0c25.6 44.8 38.4 96 38.4 150.4 0 169.6-137.6 307.2-307.2 307.2s-307.2-137.6-307.2-307.2c0-54.4 16-108.8 41.6-153.6v0l268.8-432 256 412.8c0 3.2 3.2 3.2 3.2 6.4l6.4 16zM512 646.4c70.4 0 128-57.6 128-128s-57.6-128-128-128-128 57.6-128 128 54.4 128 128 128z" />
<glyph unicode="&#xe961;" glyph-name="lock" d="M857.6 403.2c-12.8 12.8-25.6 19.2-41.6 19.2h-19.2v121.6c0 76.8-28.8 144-83.2 201.6-54.4 54.4-121.6 83.2-201.6 83.2s-144-28.8-201.6-83.2c-54.4-54.4-83.2-121.6-83.2-201.6v-121.6h-22.4c-16 0-32-6.4-41.6-19.2-12.8-12.8-19.2-25.6-19.2-41.6v-364.8c0-16 6.4-32 19.2-41.6 12.8-12.8 25.6-19.2 41.6-19.2h608c16 0 32 6.4 41.6 19.2 12.8 12.8 19.2 25.6 19.2 41.6v361.6c3.2 16-3.2 32-16 44.8v0zM672 419.2h-323.2v121.6c0 44.8 16 83.2 48 115.2s67.2 48 112 48c44.8 0 83.2-16 115.2-48s48-70.4 48-115.2c0 0 0-121.6 0-121.6z" />
<glyph unicode="&#xe962;" glyph-name="logout" d="M588.8 204.8c-48-48-108.8-73.6-176-73.6s-128 25.6-176 73.6c-48 48-73.6 108.8-73.6 176s25.6 128 73.6 176c48 48 108.8 73.6 176 73.6s128-25.6 176-73.6c22.4-22.4 38.4-48 51.2-76.8h105.6c-41.6 140.8-176 246.4-332.8 246.4-192 0-345.6-153.6-345.6-345.6s156.8-348.8 345.6-348.8c156.8 0 288 105.6 332.8 246.4h-105.6c-12.8-25.6-28.8-51.2-51.2-73.6v0zM950.4 387.2l-105.6 105.6c-3.2 3.2-6.4 3.2-9.6 3.2s-6.4 0-9.6-3.2c-3.2-3.2-3.2-6.4-3.2-9.6v-54.4h-358.4v-99.2h361.6v-54.4c0-3.2 0-6.4 3.2-9.6s6.4-3.2 9.6-3.2c3.2 0 6.4 0 9.6 3.2l105.6 105.6c3.2 3.2 3.2 6.4 3.2 9.6-3.2 3.2-6.4 3.2-6.4 6.4v0z" />
<glyph unicode="&#xe963;" glyph-name="mail" d="M889.6 112v377.6c-9.6-12.8-22.4-22.4-35.2-32-89.6-67.2-160-124.8-211.2-166.4-16-12.8-32-25.6-41.6-32s-25.6-16-41.6-22.4-35.2-12.8-51.2-12.8v0c-16 0-32 3.2-51.2 12.8s-32 16-41.6 22.4c-9.6 6.4-25.6 19.2-41.6 32-51.2 44.8-121.6 99.2-211.2 166.4-12.8 9.6-22.4 19.2-35.2 32v-380.8c0-3.2 0-6.4 3.2-9.6 6.4-3.2 9.6-3.2 16-3.2h726.4c3.2 0 6.4 0 9.6 3.2 6.4 3.2 6.4 6.4 6.4 12.8v0zM889.6 630.4v12.8c0 0 0 3.2 0 6.4s0 6.4 0 6.4c0 0-3.2 0-3.2 3.2s-3.2 3.2-3.2 3.2-3.2 0-6.4 0h-729.6c-3.2 0-6.4 0-9.6-3.2-6.4-3.2-6.4-6.4-6.4-9.6 0-54.4 25.6-102.4 73.6-140.8 64-51.2 131.2-102.4 198.4-156.8 3.2-3.2 6.4-6.4 16-16s16-12.8 22.4-19.2c6.4-3.2 12.8-9.6 22.4-16s16-9.6 25.6-12.8c6.4-3.2 16-3.2 22.4-3.2v0c6.4 0 12.8 0 22.4 3.2 6.4 3.2 16 6.4 25.6 12.8s16 12.8 22.4 16 12.8 9.6 22.4 19.2 16 12.8 16 16c67.2 54.4 134.4 105.6 198.4 156.8 19.2 12.8 35.2 32 51.2 57.6 12.8 22.4 19.2 44.8 19.2 64v0zM953.6 649.6v-537.6c0-22.4-6.4-41.6-22.4-54.4-16-19.2-35.2-25.6-57.6-25.6h-726.4c-22.4 0-41.6 6.4-54.4 22.4s-22.4 35.2-22.4 54.4v540.8c-3.2 22.4 3.2 38.4 19.2 54.4s35.2 22.4 54.4 22.4h726.4c22.4 0 41.6-6.4 54.4-22.4s28.8-32 28.8-54.4z" />
<glyph unicode="&#xe964;" glyph-name="mail2" d="M953.6 502.4v-393.6c0-22.4-6.4-41.6-22.4-54.4-16-16-35.2-22.4-57.6-22.4h-726.4c-22.4 0-41.6 6.4-54.4 22.4-16 16-22.4 35.2-22.4 54.4v393.6c16-16 32-32 51.2-41.6 118.4-80 201.6-137.6 246.4-169.6 19.2-12.8 35.2-25.6 44.8-32 12.8-6.4 28.8-16 48-22.4 19.2-9.6 38.4-12.8 54.4-12.8v0c16 0 35.2 3.2 54.4 12.8s35.2 16 48 22.4 25.6 19.2 44.8 32c57.6 41.6 137.6 96 246.4 169.6 12.8 12.8 32 25.6 44.8 41.6v0zM953.6 649.6c0-25.6-9.6-51.2-25.6-73.6s-35.2-44.8-60.8-60.8c-124.8-86.4-201.6-140.8-230.4-160-3.2-3.2-9.6-6.4-22.4-16-9.6-6.4-19.2-12.8-25.6-19.2-6.4-3.2-16-9.6-25.6-16s-19.2-9.6-28.8-12.8-16-3.2-25.6-3.2v0c-6.4 0-16 0-25.6 3.2s-19.2 6.4-28.8 12.8c-9.6 6.4-19.2 12.8-25.6 16s-16 9.6-25.6 19.2c-9.6 6.4-16 12.8-19.2 12.8-28.8 22.4-73.6 51.2-128 89.6s-89.6 64-102.4 70.4c-19.2 12.8-38.4 32-57.6 57.6s-28.8 48-28.8 67.2c0 25.6 6.4 48 19.2 64s32 25.6 57.6 25.6h729.6c22.4 0 38.4-6.4 54.4-22.4 19.2-16 25.6-32 25.6-54.4v0z" />
<glyph unicode="&#xe965;" glyph-name="man" d="M771.2 483.2v-211.2c0-12.8-3.2-25.6-12.8-35.2-9.6-6.4-22.4-12.8-35.2-12.8s-25.6 3.2-35.2 12.8c-9.6 9.6-12.8 22.4-12.8 35.2v179.2h-32v-464c0-16-6.4-28.8-16-41.6-9.6-9.6-25.6-16-41.6-16s-28.8 6.4-41.6 16c-9.6 9.6-16 25.6-16 41.6v236.8h-32v-236.8c0-16-6.4-28.8-16-41.6-9.6-9.6-25.6-16-41.6-16s-28.8 6.4-41.6 16-16 25.6-16 41.6v464h-32v-179.2c0-12.8-3.2-25.6-12.8-35.2-9.6-6.4-22.4-12.8-35.2-12.8s-25.6 3.2-35.2 12.8c-9.6 9.6-12.8 22.4-12.8 35.2v211.2c0 25.6 9.6 51.2 28.8 70.4s41.6 28.8 70.4 28.8h323.2c25.6 0 51.2-9.6 70.4-28.8 16-19.2 25.6-41.6 25.6-70.4v0zM624 710.4c0-32-9.6-57.6-32-80s-48-32-80-32-57.6 9.6-80 32c-22.4 22.4-32 48-32 80s9.6 57.6 32 80c22.4 22.4 48 32 80 32s57.6-9.6 80-32 32-48 32-80z" />
<glyph unicode="&#xe966;" glyph-name="map-sign" d="M934.4 678.4c6.4-6.4 6.4-16 0-22.4l-70.4-70.4c-9.6-9.6-22.4-12.8-35.2-12.8h-668.8c-16 0-32 16-32 32v128c0 16 16 32 32 32h288v32c0 16 16 32 32 32h64c16 0 32-16 32-32v-32h256c12.8 0 25.6-6.4 35.2-12.8l67.2-73.6zM448 220.8h128v-256c0-16-16-32-32-32h-64c-16 0-32 16-32 32v256zM864 441.6c16 0 32-16 32-32v-128c0-16-16-32-32-32h-672c-12.8 0-25.6 6.4-35.2 12.8l-70.4 70.4c-6.4 6.4-6.4 16 0 22.4l73.6 73.6c9.6 9.6 22.4 12.8 35.2 12.8h256v96h128v-96h284.8z" />
<glyph unicode="&#xe967;" glyph-name="message" d="M953.6 432c0-57.6-19.2-108.8-60.8-160-38.4-48-92.8-86.4-160-115.2s-140.8-41.6-224-41.6c-22.4 0-48 0-70.4 3.2-64-57.6-140.8-99.2-227.2-118.4-16-3.2-35.2-9.6-57.6-9.6-6.4 0-9.6 0-16 3.2-3.2 3.2-6.4 9.6-9.6 12.8v0c0 0 0 3.2 0 6.4s0 3.2 0 6.4c0 0 0 3.2 3.2 3.2l3.2 3.2c0 0 0 0 3.2 3.2s3.2 3.2 3.2 3.2c3.2 3.2 6.4 9.6 16 16 6.4 9.6 12.8 16 16 19.2s9.6 9.6 16 19.2c6.4 9.6 12.8 19.2 16 25.6s9.6 16 12.8 28.8c6.4 12.8 9.6 25.6 12.8 38.4-51.2 28.8-92.8 67.2-121.6 108.8s-44.8 89.6-44.8 137.6c0 41.6 12.8 83.2 35.2 121.6s54.4 73.6 96 102.4 86.4 51.2 140.8 67.2 112 25.6 172.8 25.6c80 0 153.6-12.8 224-41.6 67.2-28.8 121.6-67.2 160-115.2 41.6-44.8 60.8-96 60.8-153.6v0z" />
<glyph unicode="&#xe968;" glyph-name="message2" d="M508.8 681.6c-67.2 0-131.2-12.8-188.8-35.2s-105.6-54.4-140.8-92.8-51.2-80-51.2-124.8c0-38.4 12.8-73.6 35.2-105.6s57.6-64 99.2-86.4l41.6-25.6-12.8-48c-6.4-28.8-19.2-57.6-35.2-86.4 51.2 19.2 96 48 137.6 83.2l22.4 19.2 28.8-3.2c22.4-3.2 44.8-3.2 64-3.2 67.2 0 131.2 12.8 188.8 35.2s105.6 54.4 140.8 92.8c35.2 38.4 51.2 80 51.2 124.8s-16 86.4-51.2 124.8c-35.2 38.4-80 70.4-140.8 92.8-57.6 28.8-118.4 38.4-188.8 38.4v0zM953.6 428.8c0-57.6-19.2-108.8-60.8-160-38.4-48-92.8-86.4-160-115.2s-140.8-41.6-224-41.6c-22.4 0-48 0-70.4 3.2-64-57.6-140.8-99.2-227.2-118.4-16-3.2-35.2-9.6-57.6-9.6v0c-6.4 0-9.6 3.2-12.8 6.4s-6.4 9.6-6.4 12.8v0c0 0 0 3.2 0 6.4s0 3.2 0 6.4c0 0 0 3.2 3.2 3.2l3.2 3.2c0 0 0 0 3.2 3.2s3.2 3.2 3.2 3.2c3.2 3.2 6.4 9.6 16 16 6.4 9.6 12.8 16 16 19.2s9.6 9.6 16 19.2c6.4 9.6 12.8 19.2 16 25.6s9.6 16 12.8 28.8c6.4 12.8 9.6 25.6 12.8 38.4-51.2 28.8-92.8 67.2-121.6 108.8-28.8 44.8-44.8 89.6-44.8 137.6 0 57.6 19.2 108.8 60.8 160 35.2 51.2 89.6 89.6 156.8 118.4s140.8 41.6 224 41.6 153.6-12.8 224-41.6c67.2-28.8 121.6-67.2 160-115.2s57.6-102.4 57.6-160v0z" />
<glyph unicode="&#xe969;" glyph-name="mobile" d="M700.8 825.6h-377.6c-35.2 0-64-28.8-64-64v-761.6c0-35.2 28.8-64 64-64h374.4c35.2 0 64 28.8 64 64v761.6c3.2 35.2-25.6 64-60.8 64zM419.2 787.2h185.6c3.2 0 9.6-6.4 9.6-16s-6.4-16-9.6-16h-185.6c-3.2 0-9.6 6.4-9.6 16s6.4 16 9.6 16zM512-3.2c-22.4 0-41.6 19.2-41.6 41.6s19.2 41.6 41.6 41.6c22.4 0 41.6-19.2 41.6-41.6s-19.2-41.6-41.6-41.6zM684.8 137.6h-345.6c-19.2 0-32 12.8-32 32v512c0 19.2 12.8 32 32 32h345.6c19.2 0 32-12.8 32-32v-512c0-16-16-32-32-32z" />
<glyph unicode="&#xe96a;" glyph-name="more-vertical" d="M569.6 582.4h-121.6c-16 0-32 6.4-41.6 19.2-12.8 12.8-19.2 25.6-19.2 41.6v118.4c0 16 6.4 32 19.2 41.6 12.8 12.8 25.6 19.2 41.6 19.2h121.6c16 0 32-6.4 41.6-19.2 12.8-12.8 19.2-25.6 19.2-41.6v-121.6c0-16-6.4-32-19.2-41.6-9.6-9.6-22.4-16-41.6-16zM569.6 259.2h-121.6c-16 0-32 6.4-41.6 19.2-12.8 12.8-19.2 25.6-19.2 41.6v121.6c0 16 6.4 32 19.2 41.6 12.8 12.8 25.6 19.2 41.6 19.2h121.6c16 0 32-6.4 41.6-19.2 12.8-12.8 19.2-25.6 19.2-41.6v-121.6c0-16-6.4-32-19.2-41.6-9.6-12.8-22.4-19.2-41.6-19.2zM569.6-64h-121.6c-16 0-32 6.4-41.6 19.2-12.8 12.8-19.2 25.6-19.2 41.6v121.6c0 16 6.4 32 19.2 41.6 12.8 12.8 25.6 19.2 41.6 19.2h121.6c16 0 32-6.4 41.6-19.2 12.8-12.8 19.2-25.6 19.2-41.6v-121.6c0-16-6.4-32-19.2-41.6-9.6-12.8-22.4-19.2-41.6-19.2z" />
<glyph unicode="&#xe96b;" glyph-name="more" d="M310.4 441.6v-121.6c0-16-6.4-32-19.2-41.6-12.8-12.8-25.6-19.2-41.6-19.2h-121.6c-16 0-32 6.4-41.6 19.2s-19.2 25.6-19.2 41.6v121.6c0 16 6.4 32 19.2 41.6 9.6 12.8 25.6 19.2 41.6 19.2h121.6c16 0 32-6.4 41.6-19.2 12.8-12.8 19.2-25.6 19.2-41.6zM630.4 441.6v-121.6c0-16-6.4-32-19.2-41.6-12.8-12.8-25.6-19.2-41.6-19.2h-121.6c-16 0-32 6.4-41.6 19.2-12.8 12.8-19.2 25.6-19.2 41.6v121.6c0 16 6.4 32 19.2 41.6 12.8 12.8 25.6 19.2 41.6 19.2h121.6c16 0 32-6.4 41.6-19.2 12.8-12.8 19.2-25.6 19.2-41.6zM953.6 441.6v-121.6c0-16-6.4-32-19.2-41.6-12.8-12.8-25.6-19.2-41.6-19.2h-121.6c-16 0-32 6.4-41.6 19.2s-19.2 25.6-19.2 41.6v121.6c0 16 6.4 32 19.2 41.6 12.8 12.8 25.6 19.2 41.6 19.2h121.6c16 0 32-6.4 41.6-19.2 12.8-12.8 19.2-25.6 19.2-41.6z" />
<glyph unicode="&#xe96c;" glyph-name="move" d="M806.4 585.6l-182.4-182.4c-12.8-12.8-12.8-32 0-44.8l182.4-182.4 83.2 83.2c9.6 12.8 25.6 16 41.6 9.6s22.4-19.2 22.4-35.2v-259.2c0-9.6-3.2-19.2-9.6-25.6-9.6-9.6-16-12.8-28.8-12.8h-259.2c-16 0-28.8 6.4-35.2 22.4s-3.2 28.8 9.6 38.4l83.2 83.2-182.4 182.4c-12.8 12.8-32 12.8-44.8 0l-182.4-182.4 83.2-83.2c12.8-12.8 16-25.6 9.6-38.4-6.4-16-19.2-22.4-35.2-22.4h-256c-9.6 0-19.2 3.2-25.6 9.6s-9.6 16-9.6 25.6v259.2c0 16 6.4 28.8 22.4 35.2s28.8 3.2 38.4-9.6l83.2-83.2 182.4 182.4c12.8 12.8 12.8 32 0 44.8l-182.4 185.6-83.2-83.2c-6.4-6.4-16-9.6-25.6-9.6-3.2 0-9.6 0-12.8 3.2-16 6.4-22.4 19.2-22.4 35.2v256c0 9.6 3.2 19.2 9.6 25.6s16 9.6 25.6 9.6h259.2c16 0 28.8-6.4 35.2-22.4s3.2-28.8-9.6-38.4l-86.4-83.2 182.4-182.4c12.8-12.8 32-12.8 44.8 0l182.4 182.4-83.2 83.2c-12.8 12.8-16 25.6-9.6 38.4 6.4 16 19.2 22.4 35.2 22.4h259.2c9.6 0 19.2-3.2 25.6-9.6s9.6-16 9.6-25.6v-259.2c0-16-6.4-28.8-22.4-35.2-6.4-3.2-9.6-3.2-16-3.2-9.6 0-19.2 3.2-25.6 9.6l-80 86.4z" />
<glyph unicode="&#xe96d;" glyph-name="notification" d="M435.2 771.2c-54.4-16-102.4-3.2-131.2 9.6 0 0 0 0 0 9.6 0 3.2 0 6.4-6.4 6.4-16 0-51.2 0-51.2 0-19.2 0-32-12.8-32-32v-832h89.6v419.2c99.2-12.8 182.4 9.6 272 44.8 73.6 28.8 147.2 22.4 188.8 9.6 19.2-3.2 38.4 9.6 38.4 32v348.8c0 12.8-9.6 28.8-22.4 32-124.8 28.8-268.8-25.6-345.6-48z" />
<glyph unicode="&#xe96e;" glyph-name="paragraph-centered" d="M953.6 732.8v-48c0-19.2-12.8-32-32-32h-822.4c-19.2 0-32 12.8-32 32v48c0 19.2 12.8 32 32 32h822.4c19.2 0 32-12.8 32-32zM780.8 569.6v-48c0-19.2-12.8-32-32-32h-489.6c-19.2 0-32 12.8-32 32v48c0 19.2 12.8 32 32 32h489.6c19.2 0 32-16 32-32zM953.6 403.2v-48c0-19.2-12.8-32-32-32h-822.4c-19.2 0-32 12.8-32 32v48c0 19.2 12.8 32 32 32h822.4c19.2 0 32-16 32-32zM953.6 70.4v-48c0-19.2-12.8-32-32-32h-822.4c-19.2 0-32 12.8-32 32v48c0 19.2 12.8 32 32 32h822.4c19.2 0 32-12.8 32-32zM780.8 233.6v-48c0-19.2-12.8-32-32-32h-489.6c-19.2 0-32 12.8-32 32v48c0 19.2 12.8 32 32 32h489.6c19.2 0 32-12.8 32-32z" />
<glyph unicode="&#xe96f;" glyph-name="paragraph-justify" d="M953.6 732.8v-48c0-19.2-12.8-32-32-32h-822.4c-19.2 0-32 12.8-32 32v48c0 19.2 12.8 32 32 32h822.4c19.2 0 32-12.8 32-32zM953.6 569.6v-48c0-19.2-12.8-32-32-32h-822.4c-19.2 0-32 12.8-32 32v48c0 19.2 12.8 32 32 32h822.4c19.2 0 32-16 32-32zM953.6 236.8v-48c0-19.2-12.8-32-32-32h-822.4c-19.2 0-32 12.8-32 32v48c0 19.2 12.8 32 32 32h822.4c19.2 0 32-16 32-32zM953.6 403.2v-48c0-19.2-12.8-32-32-32h-822.4c-19.2 0-32 12.8-32 32v48c0 19.2 12.8 32 32 32h822.4c19.2 0 32-16 32-32zM953.6 70.4v-48c0-19.2-12.8-32-32-32h-822.4c-19.2 0-32 12.8-32 32v48c0 19.2 12.8 32 32 32h822.4c19.2 0 32-12.8 32-32z" />
<glyph unicode="&#xe970;" glyph-name="paragraph-left" d="M953.6 732.8v-48c0-19.2-12.8-32-32-32h-822.4c-19.2 0-32 12.8-32 32v48c0 19.2 12.8 32 32 32h822.4c19.2 0 32-12.8 32-32zM620.8 569.6v-48c0-19.2-12.8-32-32-32h-489.6c-19.2 0-32 12.8-32 32v48c0 19.2 12.8 32 32 32h489.6c19.2 0 32-16 32-32zM620.8 236.8v-48c0-19.2-12.8-32-32-32h-489.6c-19.2 0-32 12.8-32 32v48c0 19.2 12.8 32 32 32h489.6c19.2 0 32-16 32-32zM953.6 403.2v-48c0-19.2-12.8-32-32-32h-822.4c-19.2 0-32 12.8-32 32v48c0 19.2 12.8 32 32 32h822.4c19.2 0 32-16 32-32zM953.6 70.4v-48c0-19.2-12.8-32-32-32h-822.4c-19.2 0-32 12.8-32 32v48c0 19.2 12.8 32 32 32h822.4c19.2 0 32-12.8 32-32z" />
<glyph unicode="&#xe971;" glyph-name="paragraph-right" d="M99.2 764.8h822.4c19.2 0 32-12.8 32-32v-48c0-19.2-12.8-32-32-32h-822.4c-19.2 0-32 12.8-32 32v48c3.2 19.2 16 32 32 32zM432 601.6h489.6c19.2 0 32-12.8 32-32v-48c0-19.2-12.8-32-32-32h-489.6c-19.2 0-32 12.8-32 32v48c0 16 16 32 32 32zM432 268.8h489.6c19.2 0 32-12.8 32-32v-48c0-19.2-12.8-32-32-32h-489.6c-19.2 0-32 12.8-32 32v48c0 16 16 32 32 32zM99.2 435.2h822.4c19.2 0 32-12.8 32-32v-48c0-19.2-12.8-32-32-32h-822.4c-19.2 0-32 12.8-32 32v48c3.2 16 16 32 32 32zM99.2 102.4h822.4c19.2 0 32-12.8 32-32v-48c0-19.2-12.8-32-32-32h-822.4c-19.2 0-32 12.8-32 32v48c3.2 19.2 16 32 32 32z" />
<glyph unicode="&#xe972;" glyph-name="paramters" d="M272 185.6v-150.4h-172.8c-19.2 0-28.8 16-28.8 35.2v83.2c0 19.2 12.8 32 32 32h169.6zM473.6 227.2c9.6 0 19.2-3.2 25.6-9.6s9.6-16 9.6-25.6v-147.2c0-9.6-3.2-19.2-9.6-25.6s-16-9.6-25.6-9.6h-147.2c-9.6 0-19.2 3.2-25.6 9.6s-9.6 16-9.6 25.6v147.2c0 9.6 3.2 19.2 9.6 25.6s16 9.6 25.6 9.6c0 0 147.2 0 147.2 0zM566.4 448v-153.6h-464c-19.2 0-32 16-32 32v89.6c0 19.2 12.8 32 32 32h464zM198.4 710.4v-153.6h-99.2c-19.2 0-32 16-32 35.2v86.4c0 19.2 12.8 32 32 32h99.2zM956.8 153.6v-92.8c0-19.2-16-28.8-32-28.8h-393.6v150.4h393.6c16 3.2 32-12.8 32-28.8zM400 752c9.6 0 19.2-3.2 25.6-9.6s9.6-16 9.6-25.6v-147.2c0-9.6-3.2-19.2-9.6-25.6s-16-9.6-25.6-9.6h-147.2c-9.6 0-19.2 3.2-25.6 9.6s-9.6 16-9.6 25.6v147.2c0 9.6 3.2 19.2 9.6 25.6s16 9.6 25.6 9.6h147.2zM771.2 489.6c9.6 0 19.2-3.2 25.6-9.6s9.6-16 9.6-25.6v-147.2c0-9.6-3.2-19.2-9.6-25.6s-16-9.6-25.6-9.6h-147.2c-9.6 0-19.2 3.2-25.6 9.6s-9.6 16-9.6 25.6v147.2c0 9.6 3.2 19.2 9.6 25.6s16 9.6 25.6 9.6h147.2zM956.8 416v-86.4c0-22.4-16-35.2-32-35.2h-96v153.6h96c16 0 32-12.8 32-32zM956.8 678.4v-86.4c0-19.2-16-35.2-32-35.2h-467.2v153.6h467.2c16 0 32-12.8 32-32z" />
<glyph unicode="&#xe973;" glyph-name="pause" d="M99.2 822.4h307.2c16 0 32-12.8 32-32v-822.4c0-16-12.8-32-32-32h-307.2c-16 0-32 12.8-32 32v822.4c0 19.2 12.8 32 32 32zM617.6 822.4h307.2c16 0 32-12.8 32-32v-822.4c0-16-12.8-32-32-32h-307.2c-16 0-32 12.8-32 32v822.4c0 19.2 12.8 32 32 32z" />
<glyph unicode="&#xe974;" glyph-name="phone" d="M406.4 595.2c3.2-35.2-16-35.2-48-44.8-9.6-3.2-22.4-3.2-32-6.4-22.4-6.4-25.6-16-12.8-35.2 57.6-76.8 115.2-153.6 172.8-230.4 32-41.6 60.8-80 92.8-118.4 6.4-6.4 19.2-19.2 25.6-16 9.6 3.2 16 16 19.2 25.6 9.6 35.2 12.8 41.6 48 35.2 67.2-9.6 131.2-22.4 195.2-32 19.2-3.2 22.4-12.8 19.2-25.6-3.2-76.8-38.4-137.6-105.6-179.2-19.2-12.8-38.4-22.4-60.8-28.8-38.4-12.8-73.6 0-105.6 16-44.8 25.6-92.8 51.2-134.4 83.2-86.4 70.4-163.2 153.6-224 252.8-44.8 73.6-80 150.4-102.4 233.6-12.8 48-32 96-16 147.2 12.8 51.2 48 83.2 86.4 105.6 32 19.2 73.6 32 112 44.8 32 9.6 48-3.2 51.2-35.2 6.4-51.2 12.8-102.4 16-150.4 0-16 3.2-28.8 3.2-41.6v0z" />
<glyph unicode="&#xe975;" glyph-name="photo" d="M508.8 467.2c-73.6 0-131.2-60.8-131.2-131.2s60.8-131.2 131.2-131.2c73.6 0 131.2 60.8 131.2 131.2s-57.6 131.2-131.2 131.2zM864 601.6h-105.6c-16 0-28.8 12.8-35.2 25.6l-28.8 83.2c-3.2 12.8-19.2 25.6-35.2 25.6h-300.8c-16 0-28.8-12.8-35.2-25.6l-25.6-83.2c-6.4-16-22.4-25.6-35.2-25.6h-105.6c-48 0-89.6-38.4-89.6-89.6v-396.8c0-48 38.4-89.6 89.6-89.6h707.2c48 0 89.6 38.4 89.6 89.6v396.8c0 48-41.6 89.6-89.6 89.6v0zM508.8 115.2c-121.6 0-220.8 99.2-220.8 220.8s99.2 220.8 220.8 220.8c121.6 0 220.8-99.2 220.8-220.8s-99.2-220.8-220.8-220.8zM832 451.2c-16 0-32 12.8-32 32s12.8 32 32 32c16 0 32-12.8 32-32s-12.8-32-32-32z" />
<glyph unicode="&#xe976;" glyph-name="picture" d="M361.6 528c0-25.6-9.6-44.8-25.6-64-16-16-38.4-25.6-64-25.6s-44.8 9.6-64 25.6c-16 16-25.6 38.4-25.6 64s9.6 44.8 25.6 64c16 16 38.4 25.6 64 25.6s44.8-9.6 64-25.6c19.2-19.2 25.6-41.6 25.6-64zM835.2 348.8v-208h-649.6v89.6l147.2 147.2 73.6-73.6 236.8 236.8 192-192zM880 675.2h-739.2c-3.2 0-6.4 0-9.6-3.2s-6.4-9.6-6.4-12.8v-560c0-3.2 0-6.4 3.2-9.6s6.4-3.2 9.6-3.2h739.2c3.2 0 6.4 0 9.6 3.2s3.2 6.4 3.2 9.6v560c0 3.2 0 6.4-3.2 9.6s-3.2 6.4-6.4 6.4zM953.6 659.2v-560c0-19.2-6.4-38.4-22.4-51.2-16-16-32-22.4-51.2-22.4h-739.2c-19.2 0-38.4 6.4-51.2 22.4s-22.4 32-22.4 51.2v560c0 19.2 6.4 38.4 22.4 51.2s32 22.4 51.2 22.4h739.2c19.2 0 38.4-6.4 51.2-22.4s22.4-28.8 22.4-51.2z" />
<glyph unicode="&#xe977;" glyph-name="pin" d="M521.6 816l-60.8-60.8 83.2-86.4-198.4-224h-115.2c-28.8 0-44.8-35.2-22.4-54.4l99.2-99.2-240-316.8v-35.2h35.2l316.8 240 99.2-99.2c19.2-19.2 54.4-6.4 54.4 22.4v118.4l224 198.4 83.2-83.2 60.8 60.8c12.8 12.8 12.8 32 0 44.8l-371.2 374.4c-12.8 12.8-35.2 12.8-48 0z" />
<glyph unicode="&#xe978;" glyph-name="play" d="M889.6 419.2l-694.4 400c-28.8 16-64-3.2-64-35.2v-806.4c0-32 38.4-54.4 67.2-38.4l697.6 400c22.4 22.4 22.4 57.6-6.4 80 0 0 0 0 0 0z" />
<glyph unicode="&#xe979;" glyph-name="print" d="M272 38.4h476.8v137.6h-476.8c0 0 0-137.6 0-137.6zM272 380.8h476.8v201.6h-86.4c-12.8 0-25.6 6.4-35.2 16s-16 22.4-16 35.2v86.4h-339.2v-339.2zM886.4 345.6c0 9.6-3.2 16-9.6 22.4s-16 9.6-22.4 9.6c-9.6 0-16-3.2-22.4-9.6s-9.6-16-9.6-22.4 3.2-16 9.6-22.4c6.4-6.4 16-9.6 22.4-9.6 9.6 0 16 3.2 22.4 9.6 6.4 3.2 9.6 12.8 9.6 22.4zM953.6 345.6v-220.8c0-3.2-3.2-9.6-6.4-12.8s-6.4-6.4-12.8-6.4h-118.4v-86.4c0-12.8-6.4-25.6-16-35.2s-22.4-16-35.2-16h-508.8c-12.8 0-25.6 6.4-35.2 16s-16 22.4-16 35.2v86.4h-121.6c-3.2 0-9.6 3.2-12.8 6.4s-6.4 6.4-6.4 12.8v220.8c0 28.8 9.6 51.2 28.8 73.6s48 28.8 76.8 28.8h35.2v288c0 12.8 6.4 25.6 16 35.2 6.4 12.8 19.2 16 35.2 16h358.4c12.8 0 28.8-3.2 48-9.6 16-6.4 32-16 41.6-25.6l76.8-80c9.6-9.6 19.2-22.4 25.6-41.6s9.6-32 9.6-48v-134.4h35.2c28.8 0 51.2-9.6 73.6-28.8 19.2-22.4 28.8-44.8 28.8-73.6v0z" />
<glyph unicode="&#xe97a;" glyph-name="profil" d="M620.8 208c-22.4 3.2-22.4 64-22.4 64s64 64 76.8 147.2c38.4 0 60.8 89.6 22.4 121.6 0 32 48 262.4-188.8 262.4s-188.8-227.2-188.8-262.4c-38.4-32-16-121.6 22.4-121.6 12.8-83.2 76.8-147.2 76.8-147.2s0-60.8-22.4-64c-70.4-9.6-332.8-124.8-332.8-252.8h886.4c3.2 128-259.2 240-329.6 252.8v0z" />
<glyph unicode="&#xe97b;" glyph-name="quote-close" d="M921.6 694.4h-268.8c-19.2 0-32-12.8-32-32v-300.8l278.4-278.4c19.2-19.2 54.4-6.4 54.4 22.4v556.8c0 16-16 32-32 32zM368 694.4h-268.8c-19.2 0-32-12.8-32-32v-300.8l278.4-278.4c19.2-19.2 54.4-6.4 54.4 22.4v556.8c0 16-16 32-32 32z" />
<glyph unicode="&#xe97c;" glyph-name="quote-open" d="M67.2 662.4v-553.6c0-28.8 35.2-41.6 54.4-22.4l278.4 278.4v297.6c0 19.2-12.8 32-32 32h-268.8c-16 0-32-16-32-32zM620.8 662.4v-553.6c0-28.8 35.2-41.6 54.4-22.4l278.4 278.4v297.6c0 19.2-12.8 32-32 32h-268.8c-16 0-32-16-32-32z" />
<glyph unicode="&#xe97d;" glyph-name="reduce" d="M464 332.8c9.6-9.6 12.8-19.2 12.8-38.4v-307.2c0-28.8-22.4-51.2-51.2-51.2s-51.2 22.4-51.2 51.2v256h-256c-28.8 0-51.2 22.4-51.2 51.2s22.4 51.2 51.2 51.2h307.2c12.8 0 25.6-6.4 38.4-12.8 0 0 0 0 0 0zM556.8 425.6c-6.4 9.6-12.8 22.4-12.8 38.4v307.2c0 28.8 22.4 51.2 51.2 51.2s51.2-22.4 51.2-51.2v-256h256c28.8 0 51.2-22.4 51.2-51.2s-22.4-51.2-51.2-51.2h-307.2c-12.8 0-25.6 6.4-38.4 12.8 0 0 0 0 0 0z" />
<glyph unicode="&#xe97e;" glyph-name="refresh" d="M937.6 284.8c0-3.2 0-3.2 0-3.2-25.6-102.4-76.8-185.6-153.6-249.6s-169.6-96-275.2-96c-57.6 0-112 9.6-163.2 32s-99.2 51.2-140.8 89.6l-73.6-73.6c-6.4-6.4-16-9.6-25.6-9.6s-19.2 3.2-25.6 9.6c-6.4 6.4-9.6 16-9.6 25.6v259.2c0 9.6 3.2 19.2 9.6 25.6s16 9.6 25.6 9.6h259.2c9.6 0 19.2-3.2 25.6-9.6s9.6-16 9.6-25.6-3.2-19.2-9.6-25.6l-80-80c28.8-25.6 57.6-44.8 92.8-57.6s70.4-19.2 108.8-19.2c51.2 0 99.2 12.8 144 38.4s80 60.8 108.8 102.4c3.2 6.4 16 28.8 32 67.2 3.2 9.6 9.6 12.8 16 12.8h112c6.4 0 9.6-3.2 12.8-6.4 0-6.4 0-9.6 0-16v0zM953.6 745.6v-259.2c0-9.6-3.2-19.2-9.6-25.6s-16-9.6-25.6-9.6h-259.2c-9.6 0-19.2 3.2-25.6 9.6s-9.6 16-9.6 25.6c0 9.6 3.2 19.2 9.6 25.6l80 80c-57.6 54.4-124.8 80-201.6 80-51.2 0-99.2-12.8-144-38.4s-83.2-57.6-108.8-102.4c-3.2-6.4-16-28.8-32-67.2-3.2-9.6-9.6-12.8-16-12.8h-115.2c-6.4 0-9.6 3.2-12.8 6.4s-6.4 6.4-6.4 12.8v3.2c25.6 102.4 76.8 185.6 156.8 249.6s169.6 96 278.4 96c57.6 0 112-9.6 163.2-32 51.2-19.2 99.2-51.2 140.8-89.6l73.6 73.6c6.4 6.4 16 9.6 25.6 9.6s19.2-3.2 25.6-9.6c9.6-6.4 12.8-12.8 12.8-25.6v0z" />
<glyph unicode="&#xe97f;" glyph-name="repete" d="M956.8 748.8v-259.2c0-9.6-3.2-19.2-9.6-25.6s-16-9.6-25.6-9.6h-259.2c-16 0-28.8 6.4-35.2 22.4s-3.2 28.8 9.6 38.4l80 80c-57.6 51.2-124.8 80-201.6 80-41.6 0-76.8-6.4-115.2-22.4s-67.2-35.2-92.8-64c-25.6-25.6-48-57.6-64-92.8s-22.4-73.6-22.4-115.2c0-41.6 6.4-76.8 22.4-115.2s35.2-67.2 64-92.8 57.6-48 92.8-64c35.2-16 73.6-22.4 115.2-22.4 44.8 0 89.6 9.6 131.2 28.8s76.8 48 102.4 86.4c3.2 3.2 6.4 6.4 12.8 6.4s9.6-3.2 16-6.4l80-80c3.2-3.2 6.4-6.4 6.4-12.8s0-9.6-3.2-12.8c-41.6-51.2-92.8-89.6-153.6-118.4-67.2-28.8-128-41.6-195.2-41.6-60.8 0-118.4 12.8-172.8 35.2s-102.4 54.4-140.8 96-70.4 86.4-96 140.8-35.2 112-35.2 169.6c0 60.8 12.8 118.4 35.2 172.8 25.6 54.4 57.6 102.4 96 140.8s86.4 70.4 140.8 96c54.4 22.4 112 35.2 172.8 35.2 57.6 0 112-9.6 163.2-32 54.4-22.4 99.2-51.2 140.8-89.6l73.6 73.6c9.6 12.8 25.6 16 41.6 9.6s22.4-19.2 25.6-35.2v0z" />
<glyph unicode="&#xe980;" glyph-name="right" d="M748.8 425.6l-374.4 374.4c-12.8 12.8-35.2 22.4-51.2 22.4s-32-9.6-44.8-22.4c-28.8-28.8-28.8-67.2 0-96l326.4-326.4-326.4-326.4c-28.8-28.8-28.8-67.2 0-96s70.4-28.8 99.2 0l374.4 374.4c12.8 12.8 19.2 32 19.2 48-3.2 19.2-9.6 35.2-22.4 48z" />
<glyph unicode="&#xe981;" glyph-name="save" d="M288 9.6h441.6v220.8h-441.6c0 0 0-220.8 0-220.8zM806.4 9.6h73.6v518.4c0 6.4-3.2 12.8-6.4 22.4s-6.4 16-12.8 19.2l-163.2 163.2c-3.2 3.2-9.6 6.4-19.2 12.8-9.6 3.2-16 6.4-22.4 6.4v-240c0-16-6.4-28.8-16-38.4s-22.4-16-38.4-16h-332.8c-16 0-28.8 6.4-38.4 16s-16 22.4-16 38.4v236.8h-73.6v-739.2h73.6v240c0 16 6.4 28.8 16 38.4s22.4 16 38.4 16h480c16 0 28.8-6.4 38.4-16s16-22.4 16-38.4l3.2-240zM585.6 544v185.6c0 6.4-3.2 9.6-6.4 12.8s-6.4 6.4-12.8 6.4h-112c-6.4 0-9.6-3.2-12.8-6.4s-6.4-6.4-6.4-12.8v-185.6c0-6.4 3.2-9.6 6.4-12.8s6.4-6.4 12.8-6.4h112c6.4 0 9.6 3.2 12.8 6.4 3.2 6.4 6.4 9.6 6.4 12.8zM953.6 528v-534.4c0-16-6.4-28.8-16-38.4-9.6-12.8-25.6-19.2-38.4-19.2h-777.6c-16 0-28.8 6.4-38.4 16s-16 22.4-16 38.4v777.6c0 16 6.4 28.8 16 38.4s22.4 16 38.4 16h534.4c16 0 32-3.2 51.2-12.8 19.2-6.4 32-16 44.8-28.8l160-160c9.6-9.6 19.2-25.6 28.8-44.8 9.6-16 12.8-35.2 12.8-48v0z" />
<glyph unicode="&#xe982;" glyph-name="search" d="M924.8 67.2l-211.2 179.2c-22.4 19.2-51.2 44.8-51.2 44.8 48 57.6 67.2 115.2 67.2 198.4 0 182.4-147.2 332.8-332.8 332.8-182.4 0-329.6-147.2-329.6-332.8s147.2-332.8 332.8-332.8c83.2 0 156.8 32 198.4 67.2 0 0 25.6-28.8 44.8-51.2l179.2-211.2c32-35.2 80-38.4 112-6.4 28.8 32 25.6 83.2-9.6 112v0zM400 268.8c-121.6 0-220.8 99.2-220.8 220.8s99.2 220.8 220.8 220.8 220.8-99.2 220.8-220.8-99.2-220.8-220.8-220.8z" />
<glyph unicode="&#xe983;" glyph-name="section" d="M953.6 620.8v-163.2c0-19.2-12.8-32-32-32h-822.4c-19.2 0-32 12.8-32 32v163.2c0 19.2 12.8 32 32 32h822.4c19.2 0 32-12.8 32-32zM953.6 300.8v-163.2c0-19.2-12.8-32-32-32h-822.4c-19.2 0-32 12.8-32 32v163.2c0 19.2 12.8 32 32 32h822.4c19.2 0 32-12.8 32-32z" />
<glyph unicode="&#xe984;" glyph-name="send" d="M940.8 819.2c9.6-6.4 16-19.2 12.8-32l-128-764.8c-3.2-9.6-6.4-16-16-22.4-3.2-3.2-9.6-3.2-16-3.2-3.2 0-6.4 0-12.8 3.2l-259.2 105.6-147.2-163.2c-6.4-6.4-12.8-9.6-22.4-9.6-3.2 0-9.6 0-12.8 3.2-6.4 3.2-12.8 6.4-16 12.8s-3.2 9.6-3.2 16v224l-233.6 96c-12.8 3.2-19.2 12.8-19.2 28.8 0 12.8 3.2 22.4 16 28.8l822.4 476.8c12.8 9.6 22.4 9.6 35.2 0v0zM771.2 73.6l108.8 659.2-707.2-412.8 166.4-67.2 425.6 316.8-236.8-396.8 243.2-99.2z" />
<glyph unicode="&#xe985;" glyph-name="send2" d="M940.8 816c9.6-6.4 16-19.2 12.8-32l-128-761.6c-3.2-9.6-6.4-16-16-22.4-3.2 0-9.6 0-12.8 0s-6.4 0-12.8 3.2l-224 92.8-118.4-147.2c-9.6-9.6-16-12.8-25.6-12.8-3.2 0-6.4 0-9.6 3.2-6.4 3.2-12.8 6.4-16 12.8-6.4 3.2-6.4 9.6-6.4 16v172.8l425.6 524.8-528-457.6-195.2 80c-12.8 3.2-19.2 12.8-19.2 28.8 0 12.8 3.2 22.4 16 28.8l822.4 473.6c6.4 3.2 9.6 3.2 16 3.2s12.8 0 19.2-6.4z" />
<glyph unicode="&#xe986;" glyph-name="setting" d="M832 480l-22.4 54.4c0 0 51.2 118.4 48 121.6l-70.4 67.2c-3.2 3.2-121.6-51.2-121.6-51.2l-54.4 22.4c0 0-48 118.4-54.4 118.4h-96c-6.4 0-51.2-118.4-51.2-118.4l-54.4-22.4c0 0-118.4 51.2-124.8 48l-70.4-70.4c-3.2-3.2 51.2-118.4 51.2-118.4l-22.4-54.4c0 0-121.6-48-121.6-54.4v-96c0-6.4 121.6-51.2 121.6-51.2l22.4-54.4c0 0-51.2-118.4-48-121.6l70.4-67.2c3.2-3.2 121.6 48 121.6 48l54.4-22.4c0 0 48-118.4 54.4-118.4h96c6.4 0 51.2 118.4 51.2 118.4l54.4 22.4c0 0 118.4-51.2 124.8-48l70.4 67.2c6.4 3.2-51.2 118.4-51.2 118.4l22.4 54.4c0 0 121.6 48 121.6 54.4v96c0 12.8-121.6 57.6-121.6 57.6v0zM652.8 380.8c0-76.8-64-137.6-140.8-137.6s-140.8 64-140.8 137.6 64 137.6 140.8 137.6c76.8 0 140.8-64 140.8-137.6z" />
<glyph unicode="&#xe987;" glyph-name="share" d="M294.4 304c0 0 51.2 169.6 342.4 169.6v-108.8c0-25.6 28.8-41.6 51.2-28.8l249.6 166.4c19.2 12.8 19.2 41.6 0 54.4l-249.6 166.4c-22.4 16-51.2 0-51.2-28.8v-108.8c-227.2 3.2-342.4-137.6-342.4-281.6zM694.4 192h-512v339.2h112c9.6 9.6 19.2 19.2 28.8 32 38.4 35.2 86.4 64 137.6 83.2h-361.6c-19.2 0-32-16-32-32v-505.6c0-19.2 16-32 32-32h675.2c19.2 0 32 16 32 32v204.8l-115.2-76.8 3.2-44.8z" />
<glyph unicode="&#xe988;" glyph-name="show" d="M508.8 656c-192 0-361.6-112-441.6-275.2 83.2-163.2 249.6-275.2 441.6-275.2s361.6 112 441.6 275.2c-80 163.2-246.4 275.2-441.6 275.2zM729.6 508.8c51.2-32 96-76.8 128-131.2-32-51.2-76.8-96-128-131.2-64-41.6-140.8-64-217.6-64s-153.6 22.4-217.6 64c-51.2 32-96 76.8-128 131.2 32 51.2 76.8 96 128 131.2 3.2 3.2 6.4 3.2 9.6 6.4-9.6-22.4-16-48-16-73.6 0-121.6 99.2-220.8 220.8-220.8s220.8 99.2 220.8 220.8c0 25.6-3.2 51.2-12.8 76.8 6.4-3.2 9.6-6.4 12.8-9.6zM508.8 467.2c0-44.8-38.4-83.2-83.2-83.2s-83.2 38.4-83.2 83.2 38.4 83.2 83.2 83.2 83.2-35.2 83.2-83.2z" />
<glyph unicode="&#xe989;" glyph-name="skype" d="M921.6 304c0 0 0-3.2 0-3.2v9.6c0-3.2 0-3.2 0-6.4 3.2 25.6 6.4 51.2 6.4 76.8 0 57.6-9.6 112-32 163.2s-51.2 96-89.6 134.4c-38.4 38.4-83.2 67.2-134.4 89.6s-105.6 32-163.2 32c-25.6 0-54.4-3.2-80-6.4v0c0 0 3.2 0 3.2-3.2h-9.6c0 0 3.2 0 3.2 0-35.2 19.2-76.8 28.8-115.2 28.8-67.2 0-128-25.6-176-73.6s-67.2-105.6-67.2-172.8c0-41.6 9.6-83.2 32-121.6 0 0 0 3.2 0 3.2v-9.6c0 0 0 3.2-3.2 3.2-3.2-22.4-6.4-48-6.4-73.6 0-57.6 9.6-112 32-163.2s51.2-96 89.6-134.4 83.2-67.2 134.4-89.6c51.2-22.4 105.6-32 163.2-32 25.6 0 48 3.2 73.6 6.4 0 0-3.2 0-3.2 3.2h9.6c0 0-3.2 0-3.2 0 38.4-22.4 80-32 121.6-32 67.2 0 128 25.6 176 73.6s73.6 108.8 73.6 176c-3.2 44.8-12.8 86.4-35.2 121.6v0zM512 124.8c-147.2 0-214.4 73.6-214.4 128 0 28.8 19.2 48 48 48 64 0 48-92.8 166.4-92.8 60.8 0 92.8 32 92.8 67.2 0 19.2-9.6 41.6-51.2 51.2l-131.2 32c-105.6 25.6-124.8 83.2-124.8 137.6 0 112 105.6 153.6 204.8 153.6 92.8 0 198.4-51.2 198.4-118.4 0-28.8-25.6-44.8-54.4-44.8-54.4 0-44.8 73.6-153.6 73.6-54.4 0-83.2-25.6-83.2-60.8s41.6-44.8 80-54.4l99.2-22.4c105.6-22.4 134.4-86.4 134.4-144 0-86.4-70.4-153.6-211.2-153.6v0z" />
<glyph unicode="&#xe98a;" glyph-name="smiley-happy" d="M499.2-41.6c240 0 432 195.2 432 432s-192 435.2-432 435.2-432-195.2-432-432 195.2-435.2 432-435.2zM499.2 745.6c195.2 0 352-156.8 352-352s-156.8-352-352-352-352 156.8-352 352 160 352 352 352zM444.8 547.2c0-30.044-24.356-54.4-54.4-54.4s-54.4 24.356-54.4 54.4c0 30.044 24.356 54.4 54.4 54.4s54.4-24.356 54.4-54.4zM684.8 547.2c0-30.044-24.356-54.4-54.4-54.4s-54.4 24.356-54.4 54.4c0 30.044 24.356 54.4 54.4 54.4s54.4-24.356 54.4-54.4zM652.8 288c-12.8 0-25.6-6.4-32-19.2-12.8-28.8-57.6-57.6-108.8-57.6-54.4 0-102.4 28.8-115.2 60.8-3.2 12.8-12.8 16-22.4 16v0c-25.6 0-41.6-28.8-25.6-51.2 35.2-44.8 92.8-76.8 160-76.8 70.4 0 131.2 35.2 166.4 89.6 9.6 16-3.2 38.4-22.4 38.4v0z" />
<glyph unicode="&#xe98b;" glyph-name="smiley-neutral" d="M499.2-41.6c240 0 432 195.2 432 432s-192 435.2-432 435.2-432-195.2-432-432 195.2-435.2 432-435.2zM499.2 745.6c195.2 0 352-156.8 352-352s-156.8-352-352-352-352 156.8-352 352 160 352 352 352zM659.2 204.8h-297.6c-19.2 0-32 12.8-32 32v6.4c0 19.2 12.8 32 32 32h297.6c19.2 0 32-12.8 32-32v-6.4c0-16-12.8-32-32-32zM444.8 547.2c0-30.044-24.356-54.4-54.4-54.4s-54.4 24.356-54.4 54.4c0 30.044 24.356 54.4 54.4 54.4s54.4-24.356 54.4-54.4zM684.8 547.2c0-30.044-24.356-54.4-54.4-54.4s-54.4 24.356-54.4 54.4c0 30.044 24.356 54.4 54.4 54.4s54.4-24.356 54.4-54.4z" />
</font>
</defs>
</svg>
